<svg xmlns="http://www.w3.org/2000/svg" xmlns:xlink="http://www.w3.org/1999/xlink" width="500" zoomAndPan="magnify" viewBox="0 0 375 112.499997" height="150" preserveAspectRatio="xMidYMid meet" version="1.0"><defs><g/><clipPath id="661da779ca"><path d="M 41.824219 42.570312 L 68.464844 42.570312 L 68.464844 69.210938 L 41.824219 69.210938 Z M 41.824219 42.570312 " clip-rule="nonzero"/></clipPath><clipPath id="703c766788"><path d="M 40.929688 41.675781 L 69.304688 41.675781 L 69.304688 70.046875 L 40.929688 70.046875 Z M 40.929688 41.675781 " clip-rule="nonzero"/></clipPath><clipPath id="f42b810549"><path d="M 46.386719 47.132812 L 64.21875 47.132812 L 64.21875 64.960938 L 46.386719 64.960938 Z M 46.386719 47.132812 " clip-rule="nonzero"/></clipPath><clipPath id="a87523cd36"><path d="M 45.492188 46.234375 L 64.90625 46.234375 L 64.90625 65.648438 L 45.492188 65.648438 Z M 45.492188 46.234375 " clip-rule="nonzero"/></clipPath><clipPath id="670abb074e"><path d="M 37.453125 38.199219 L 72.835938 38.199219 L 72.835938 73.582031 L 37.453125 73.582031 Z M 37.453125 38.199219 " clip-rule="nonzero"/></clipPath><clipPath id="0c6c9541e8"><path d="M 36.558594 37.304688 L 73.730469 37.304688 L 73.730469 74.472656 L 36.558594 74.472656 Z M 36.558594 37.304688 " clip-rule="nonzero"/></clipPath><clipPath id="e691d6fe5f"><path d="M 32.996094 33.894531 L 77.296875 33.894531 L 77.296875 78.199219 L 32.996094 78.199219 Z M 32.996094 33.894531 " clip-rule="nonzero"/></clipPath><clipPath id="1819e51e3f"><path d="M 32.097656 33 L 78.183594 33 L 78.183594 79.085938 L 32.097656 79.085938 Z M 32.097656 33 " clip-rule="nonzero"/></clipPath><clipPath id="1aa847d873"><path d="M 28.925781 29.210938 L 82.285156 29.210938 L 82.285156 82.570312 L 28.925781 82.570312 Z M 28.925781 29.210938 " clip-rule="nonzero"/></clipPath><clipPath id="00d2bbd42c"><path d="M 28.03125 28.316406 L 83.167969 28.316406 L 83.167969 83.453125 L 28.03125 83.453125 Z M 28.03125 28.316406 " clip-rule="nonzero"/></clipPath><clipPath id="3a8e282aa0"><path d="M 24.140625 25.042969 L 86.148438 25.042969 L 86.148438 87.050781 L 24.140625 87.050781 Z M 24.140625 25.042969 " clip-rule="nonzero"/></clipPath><clipPath id="dddfa344c4"><path d="M 23.246094 24.148438 L 86.714844 24.148438 L 86.714844 87.613281 L 23.246094 87.613281 Z M 23.246094 24.148438 " clip-rule="nonzero"/></clipPath><clipPath id="515b9c8b37"><path d="M 4.941406 5.226562 L 106.492188 5.226562 L 106.492188 106.777344 L 4.941406 106.777344 Z M 4.941406 5.226562 " clip-rule="nonzero"/></clipPath></defs><g clip-path="url(#661da779ca)"><path stroke-linecap="butt" transform="matrix(0.125548, 0, 0, 0.125548, 40.928438, 41.673207)" fill="none" stroke-linejoin="miter" d="M 1.005584 0.985026 L 224.99203 0.985026 L 224.99203 225.002585 L 1.005584 225.002585 Z M 1.005584 0.985026 " stroke="#989898" stroke-width="2" stroke-opacity="1" stroke-miterlimit="4"/></g><g clip-path="url(#703c766788)"><path stroke-linecap="butt" transform="matrix(0.746681, 0, 0, 0.746681, 40.929666, 41.674435)" fill="none" stroke-linejoin="miter" d="M 0.0000283315 0.00180309 L 0.0000283315 38.060831 L 38.064288 38.060831 L 38.064288 0.00180309 L 0.0000283315 0.00180309 " stroke="#ffffff" stroke-width="6" stroke-opacity="1" stroke-miterlimit="4"/></g><g clip-path="url(#f42b810549)"><path stroke-linecap="butt" transform="matrix(0.0859014, 0, 0, 0.0859014, 45.483171, 46.227937)" fill="none" stroke-linejoin="miter" d="M 1.014441 0.984422 L 225.017656 0.984422 L 225.017656 224.987637 L 1.014441 224.987637 Z M 1.014441 0.984422 " stroke="#989898" stroke-width="2" stroke-opacity="1" stroke-miterlimit="4"/></g><g clip-path="url(#a87523cd36)"><path stroke-linecap="butt" transform="matrix(0.746681, 0, 0, 0.746681, 45.490798, 46.235564)" fill="none" stroke-linejoin="miter" d="M 0.00186154 -0.00159199 L 0.00186154 26.265678 L 26.2639 26.265678 L 26.2639 -0.00159199 L 0.00186154 -0.00159199 " stroke="#ffffff" stroke-width="6" stroke-opacity="1" stroke-miterlimit="4"/></g><g clip-path="url(#670abb074e)"><path stroke-linecap="butt" transform="matrix(0.165195, 0, 0, 0.165195, 36.5623, 37.307066)" fill="none" stroke-linejoin="miter" d="M 0.994358 1.00239 L 224.995758 1.00239 L 224.995758 225.003791 L 0.994358 225.003791 Z M 0.994358 1.00239 " stroke="#989898" stroke-width="2" stroke-opacity="1" stroke-miterlimit="4"/></g><g clip-path="url(#0c6c9541e8)"><path stroke-linecap="butt" transform="matrix(0.746681, 0, 0, 0.746681, 36.559033, 37.3038)" fill="none" stroke-linejoin="miter" d="M -0.000588022 0.00118866 L -0.000588022 49.778735 L 49.78219 49.778735 L 49.78219 0.00118866 L -0.000588022 0.00118866 " stroke="#ffffff" stroke-width="6" stroke-opacity="1" stroke-miterlimit="4"/></g><g clip-path="url(#e691d6fe5f)"><path stroke-linecap="butt" transform="matrix(0.204842, 0, 0, 0.204842, 32.102136, 33.003797)" fill="none" stroke-linejoin="miter" d="M 1.007888 0.99215 L 224.999354 0.99215 L 224.999354 225.002685 L 1.007888 225.002685 Z M 1.007888 0.99215 " stroke="#989898" stroke-width="2" stroke-opacity="1" stroke-miterlimit="4"/></g><g clip-path="url(#1819e51e3f)"><path stroke-linecap="butt" transform="matrix(0.746681, 0, 0, 0.746681, 32.098749, 33.000411)" fill="none" stroke-linejoin="miter" d="M -0.00146382 -0.000549787 L -0.00146382 61.720473 L 61.719559 61.720473 L 61.719559 -0.000549787 L -0.00146382 -0.000549787 " stroke="#ffffff" stroke-width="6" stroke-opacity="1" stroke-miterlimit="4"/></g><g clip-path="url(#1aa847d873)"><path stroke-linecap="butt" transform="matrix(0.244489, 0, 0, 0.244489, 28.033266, 28.317568)" fill="none" stroke-linejoin="miter" d="M 0.998319 1.001813 L 224.999036 1.001813 L 224.999036 225.00253 L 0.998319 225.00253 Z M 0.998319 1.001813 " stroke="#989898" stroke-width="2" stroke-opacity="1" stroke-miterlimit="4"/></g><g clip-path="url(#00d2bbd42c)"><path stroke-linecap="butt" transform="matrix(0.746681, 0, 0, 0.746681, 28.031689, 28.315991)" fill="none" stroke-linejoin="miter" d="M -0.000588107 0.000555952 L -0.000588107 73.842927 L 73.841783 73.842927 L 73.841783 0.000555952 L -0.000588107 0.000555952 " stroke="#ffffff" stroke-width="6" stroke-opacity="1" stroke-miterlimit="4"/></g><g clip-path="url(#3a8e282aa0)"><path stroke-linecap="butt" transform="matrix(0.280831, 0, 0, 0.280831, 23.241573, 24.143235)" fill="none" stroke-linejoin="miter" d="M 1.003677 1.006108 L 225.003695 1.006108 L 225.003695 225.006126 L 1.003677 225.006126 Z M 1.003677 1.006108 " stroke="#989898" stroke-width="2" stroke-opacity="1" stroke-miterlimit="4"/></g><g clip-path="url(#dddfa344c4)"><path stroke-linecap="butt" transform="matrix(0.746681, 0, 0, 0.746681, 23.245416, 24.147077)" fill="none" stroke-linejoin="miter" d="M 0.000907423 0.00182145 L 0.000907423 85.437152 L 85.436238 85.437152 L 85.436238 0.00182145 L 0.000907423 0.00182145 " stroke="#ffffff" stroke-width="6" stroke-opacity="1" stroke-miterlimit="4"/></g><g clip-path="url(#515b9c8b37)"><path fill="#ffffff" d="M 55.605469 5.226562 C 27.652344 5.226562 4.941406 27.9375 4.941406 55.890625 C 4.941406 83.84375 27.652344 106.554688 55.605469 106.554688 C 83.558594 106.554688 106.269531 83.84375 106.269531 55.890625 C 106.269531 27.9375 83.558594 5.226562 55.605469 5.226562 Z M 55.605469 7.429688 C 82.398438 7.429688 104.066406 29.097656 104.066406 55.890625 C 104.066406 82.683594 82.398438 104.351562 55.605469 104.351562 C 28.8125 104.351562 7.144531 82.683594 7.144531 55.890625 C 7.144531 29.097656 28.8125 7.429688 55.605469 7.429688 Z M 55.605469 7.429688 " fill-opacity="1" fill-rule="nonzero"/></g><g fill="#ffffff" fill-opacity="1"><g transform="translate(114.355545, 74.651124)"><g><path d="M 0.84375 0 L 4.90625 -11.84375 L 6.90625 -11.84375 L 11.046875 0 L 9.625 0 L 8.75 -2.453125 L 3.109375 -2.453125 L 2.265625 0 Z M 5.9375 -10.828125 L 5.875 -10.828125 C 5.875 -10.691406 5.832031 -10.53125 5.75 -10.34375 L 3.46875 -3.546875 L 8.390625 -3.546875 L 6.0625 -10.34375 C 5.976562 -10.53125 5.9375 -10.691406 5.9375 -10.828125 Z M 5.9375 -10.828125 "/></g></g></g><g fill="#ffffff" fill-opacity="1"><g transform="translate(126.248169, 74.651124)"><g><path d="M 1.6875 0 L 1.6875 -11.84375 L 7.953125 -11.84375 C 8.242188 -11.84375 8.515625 -11.726562 8.765625 -11.5 L 10.390625 -10.15625 C 10.660156 -9.925781 10.796875 -9.695312 10.796875 -9.46875 L 10.796875 -2.375 C 10.796875 -2.144531 10.660156 -1.914062 10.390625 -1.6875 L 8.765625 -0.34375 C 8.515625 -0.113281 8.242188 0 7.953125 0 Z M 9.375 -2.875 L 9.375 -8.96875 C 9.375 -9.195312 9.238281 -9.421875 8.96875 -9.640625 L 8.15625 -10.328125 C 7.90625 -10.546875 7.632812 -10.65625 7.34375 -10.65625 L 3.109375 -10.65625 L 3.109375 -1.1875 L 7.34375 -1.1875 C 7.632812 -1.1875 7.90625 -1.296875 8.15625 -1.515625 L 8.96875 -2.203125 C 9.238281 -2.421875 9.375 -2.644531 9.375 -2.875 Z M 9.375 -2.875 "/></g></g></g><g fill="#ffffff" fill-opacity="1"><g transform="translate(138.309962, 74.651124)"><g><path d="M 5.078125 -1.046875 L 5.140625 -1.046875 C 5.140625 -1.117188 5.175781 -1.265625 5.25 -1.484375 L 8.453125 -11.84375 L 9.96875 -11.84375 L 6.046875 0 L 4.171875 0 L 0.25 -11.84375 L 1.765625 -11.84375 L 4.96875 -1.484375 C 5.039062 -1.265625 5.078125 -1.117188 5.078125 -1.046875 Z M 5.078125 -1.046875 "/></g></g></g><g fill="#ffffff" fill-opacity="1"><g transform="translate(148.527805, 74.651124)"><g><path d="M 0.84375 0 L 4.90625 -11.84375 L 6.90625 -11.84375 L 11.046875 0 L 9.625 0 L 8.75 -2.453125 L 3.109375 -2.453125 L 2.265625 0 Z M 5.9375 -10.828125 L 5.875 -10.828125 C 5.875 -10.691406 5.832031 -10.53125 5.75 -10.34375 L 3.46875 -3.546875 L 8.390625 -3.546875 L 6.0625 -10.34375 C 5.976562 -10.53125 5.9375 -10.691406 5.9375 -10.828125 Z M 5.9375 -10.828125 "/></g></g></g><g fill="#ffffff" fill-opacity="1"><g transform="translate(160.420428, 74.651124)"><g><path d="M 9.3125 -2.203125 L 9.359375 -2.21875 C 9.273438 -2.488281 9.234375 -2.757812 9.234375 -3.03125 L 9.234375 -11.84375 L 10.65625 -11.84375 L 10.65625 0 L 9.234375 0 L 3.046875 -9.515625 L 3 -9.5 C 3.070312 -9.226562 3.109375 -8.957031 3.109375 -8.6875 L 3.109375 0 L 1.6875 0 L 1.6875 -11.84375 L 3.109375 -11.84375 Z M 9.3125 -2.203125 "/></g></g></g><g fill="#ffffff" fill-opacity="1"><g transform="translate(172.769815, 74.651124)"><g><path d="M 10.390625 -9.640625 L 8.96875 -9.640625 L 8.96875 -9.96875 C 8.96875 -10.132812 8.957031 -10.242188 8.9375 -10.296875 C 8.925781 -10.347656 8.867188 -10.410156 8.765625 -10.484375 C 8.660156 -10.566406 8.578125 -10.613281 8.515625 -10.625 C 8.460938 -10.644531 8.335938 -10.65625 8.140625 -10.65625 L 3.9375 -10.65625 C 3.738281 -10.65625 3.609375 -10.644531 3.546875 -10.625 C 3.492188 -10.613281 3.414062 -10.566406 3.3125 -10.484375 C 3.21875 -10.410156 3.160156 -10.347656 3.140625 -10.296875 C 3.117188 -10.242188 3.109375 -10.132812 3.109375 -9.96875 L 3.109375 -1.875 C 3.109375 -1.707031 3.117188 -1.597656 3.140625 -1.546875 C 3.160156 -1.492188 3.21875 -1.425781 3.3125 -1.34375 C 3.414062 -1.269531 3.492188 -1.222656 3.546875 -1.203125 C 3.609375 -1.191406 3.738281 -1.1875 3.9375 -1.1875 L 8.140625 -1.1875 C 8.335938 -1.1875 8.460938 -1.191406 8.515625 -1.203125 C 8.578125 -1.222656 8.660156 -1.269531 8.765625 -1.34375 C 8.867188 -1.425781 8.925781 -1.492188 8.9375 -1.546875 C 8.957031 -1.597656 8.96875 -1.707031 8.96875 -1.875 L 8.96875 -2.203125 L 10.390625 -2.203125 L 10.390625 -1.515625 C 10.390625 -1.179688 10.253906 -0.898438 9.984375 -0.671875 L 9.578125 -0.34375 C 9.304688 -0.113281 9.035156 0 8.765625 0 L 3.3125 0 C 3.039062 0 2.769531 -0.113281 2.5 -0.34375 L 2.09375 -0.671875 C 1.820312 -0.898438 1.6875 -1.179688 1.6875 -1.515625 L 1.6875 -10.328125 C 1.6875 -10.660156 1.820312 -10.941406 2.09375 -11.171875 L 2.5 -11.5 C 2.769531 -11.726562 3.039062 -11.84375 3.3125 -11.84375 L 8.765625 -11.84375 C 9.035156 -11.84375 9.304688 -11.726562 9.578125 -11.5 L 9.984375 -11.171875 C 10.253906 -10.941406 10.390625 -10.660156 10.390625 -10.328125 Z M 10.390625 -9.640625 "/></g></g></g><g fill="#ffffff" fill-opacity="1"><g transform="translate(183.985759, 74.651124)"><g><path d="M 9.265625 -1.1875 L 9.265625 0 L 1.6875 0 L 1.6875 -11.84375 L 9.265625 -11.84375 L 9.265625 -10.65625 L 3.109375 -10.65625 L 3.109375 -6.59375 L 8.328125 -6.59375 L 8.328125 -5.421875 L 3.109375 -5.421875 L 3.109375 -1.1875 Z M 9.265625 -1.1875 "/></g></g></g><g fill="#ffffff" fill-opacity="1"><g transform="translate(194.525022, 74.651124)"><g><path d="M 1.6875 0 L 1.6875 -11.84375 L 7.953125 -11.84375 C 8.242188 -11.84375 8.515625 -11.726562 8.765625 -11.5 L 10.390625 -10.15625 C 10.660156 -9.925781 10.796875 -9.695312 10.796875 -9.46875 L 10.796875 -2.375 C 10.796875 -2.144531 10.660156 -1.914062 10.390625 -1.6875 L 8.765625 -0.34375 C 8.515625 -0.113281 8.242188 0 7.953125 0 Z M 9.375 -2.875 L 9.375 -8.96875 C 9.375 -9.195312 9.238281 -9.421875 8.96875 -9.640625 L 8.15625 -10.328125 C 7.90625 -10.546875 7.632812 -10.65625 7.34375 -10.65625 L 3.109375 -10.65625 L 3.109375 -1.1875 L 7.34375 -1.1875 C 7.632812 -1.1875 7.90625 -1.296875 8.15625 -1.515625 L 8.96875 -2.203125 C 9.238281 -2.421875 9.375 -2.644531 9.375 -2.875 Z M 9.375 -2.875 "/></g></g></g><g fill="#ffffff" fill-opacity="1"><g transform="translate(206.586815, 74.651124)"><g/></g></g><g fill="#ffffff" fill-opacity="1"><g transform="translate(210.816054, 74.651124)"><g><path d="M 1.6875 0 L 1.6875 -11.84375 L 7.953125 -11.84375 C 8.242188 -11.84375 8.515625 -11.726562 8.765625 -11.5 L 10.390625 -10.15625 C 10.660156 -9.925781 10.796875 -9.695312 10.796875 -9.46875 L 10.796875 -2.375 C 10.796875 -2.144531 10.660156 -1.914062 10.390625 -1.6875 L 8.765625 -0.34375 C 8.515625 -0.113281 8.242188 0 7.953125 0 Z M 9.375 -2.875 L 9.375 -8.96875 C 9.375 -9.195312 9.238281 -9.421875 8.96875 -9.640625 L 8.15625 -10.328125 C 7.90625 -10.546875 7.632812 -10.65625 7.34375 -10.65625 L 3.109375 -10.65625 L 3.109375 -1.1875 L 7.34375 -1.1875 C 7.632812 -1.1875 7.90625 -1.296875 8.15625 -1.515625 L 8.96875 -2.203125 C 9.238281 -2.421875 9.375 -2.644531 9.375 -2.875 Z M 9.375 -2.875 "/></g></g></g><g fill="#ffffff" fill-opacity="1"><g transform="translate(222.877847, 74.651124)"><g><path d="M 1.6875 -11.84375 L 7.953125 -11.84375 C 8.222656 -11.84375 8.492188 -11.726562 8.765625 -11.5 L 9.171875 -11.171875 C 9.441406 -10.941406 9.578125 -10.660156 9.578125 -10.328125 L 9.578125 -6.359375 C 9.578125 -6.015625 9.4375 -5.722656 9.15625 -5.484375 L 8.734375 -5.125 C 8.484375 -4.925781 8.222656 -4.828125 7.953125 -4.828125 L 7 -4.828125 L 8.75 -2.109375 C 8.875 -1.921875 8.960938 -1.800781 9.015625 -1.75 C 9.066406 -1.695312 9.179688 -1.617188 9.359375 -1.515625 L 9.546875 -1.421875 C 9.742188 -1.304688 9.859375 -1.210938 9.890625 -1.140625 C 9.929688 -1.078125 9.953125 -0.914062 9.953125 -0.65625 L 9.953125 0 L 9.53125 0 C 9.320312 0 9.179688 -0.0078125 9.109375 -0.03125 C 9.035156 -0.0507812 8.910156 -0.125 8.734375 -0.25 L 8.40625 -0.46875 C 8.15625 -0.644531 7.953125 -0.867188 7.796875 -1.140625 L 5.546875 -4.734375 L 3.109375 -4.734375 L 3.109375 0 L 1.6875 0 Z M 3.109375 -10.65625 L 3.109375 -5.921875 L 7.328125 -5.921875 C 7.523438 -5.921875 7.648438 -5.925781 7.703125 -5.9375 C 7.765625 -5.957031 7.847656 -6.003906 7.953125 -6.078125 C 8.054688 -6.160156 8.113281 -6.226562 8.125 -6.28125 C 8.144531 -6.332031 8.15625 -6.441406 8.15625 -6.609375 L 8.15625 -9.96875 C 8.15625 -10.132812 8.144531 -10.242188 8.125 -10.296875 C 8.113281 -10.347656 8.054688 -10.410156 7.953125 -10.484375 C 7.847656 -10.566406 7.765625 -10.613281 7.703125 -10.625 C 7.648438 -10.644531 7.523438 -10.65625 7.328125 -10.65625 Z M 3.109375 -10.65625 "/></g></g></g><g fill="#ffffff" fill-opacity="1"><g transform="translate(234.262961, 74.651124)"><g><path d="M 3.3125 -11.84375 L 9.515625 -11.84375 C 9.785156 -11.84375 10.054688 -11.726562 10.328125 -11.5 L 10.734375 -11.171875 C 11.003906 -10.941406 11.140625 -10.660156 11.140625 -10.328125 L 11.140625 -1.515625 C 11.140625 -1.179688 11.003906 -0.898438 10.734375 -0.671875 L 10.328125 -0.34375 C 10.054688 -0.113281 9.785156 0 9.515625 0 L 3.3125 0 C 3.039062 0 2.769531 -0.113281 2.5 -0.34375 L 2.09375 -0.671875 C 1.820312 -0.898438 1.6875 -1.179688 1.6875 -1.515625 L 1.6875 -10.328125 C 1.6875 -10.660156 1.820312 -10.941406 2.09375 -11.171875 L 2.5 -11.5 C 2.769531 -11.726562 3.039062 -11.84375 3.3125 -11.84375 Z M 9.71875 -1.875 L 9.71875 -9.96875 C 9.71875 -10.132812 9.707031 -10.242188 9.6875 -10.296875 C 9.664062 -10.347656 9.601562 -10.410156 9.5 -10.484375 C 9.40625 -10.566406 9.328125 -10.613281 9.265625 -10.625 C 9.210938 -10.644531 9.085938 -10.65625 8.890625 -10.65625 L 3.9375 -10.65625 C 3.738281 -10.65625 3.609375 -10.644531 3.546875 -10.625 C 3.492188 -10.613281 3.414062 -10.566406 3.3125 -10.484375 C 3.21875 -10.410156 3.160156 -10.347656 3.140625 -10.296875 C 3.117188 -10.242188 3.109375 -10.132812 3.109375 -9.96875 L 3.109375 -1.875 C 3.109375 -1.707031 3.117188 -1.597656 3.140625 -1.546875 C 3.160156 -1.492188 3.21875 -1.425781 3.3125 -1.34375 C 3.414062 -1.269531 3.492188 -1.222656 3.546875 -1.203125 C 3.609375 -1.191406 3.738281 -1.1875 3.9375 -1.1875 L 8.890625 -1.1875 C 9.085938 -1.1875 9.210938 -1.191406 9.265625 -1.203125 C 9.328125 -1.222656 9.40625 -1.269531 9.5 -1.34375 C 9.601562 -1.425781 9.664062 -1.492188 9.6875 -1.546875 C 9.707031 -1.597656 9.71875 -1.707031 9.71875 -1.875 Z M 9.71875 -1.875 "/></g></g></g><g fill="#ffffff" fill-opacity="1"><g transform="translate(247.086019, 74.651124)"><g><path d="M 9.3125 -2.203125 L 9.359375 -2.21875 C 9.273438 -2.488281 9.234375 -2.757812 9.234375 -3.03125 L 9.234375 -11.84375 L 10.65625 -11.84375 L 10.65625 0 L 9.234375 0 L 3.046875 -9.515625 L 3 -9.5 C 3.070312 -9.226562 3.109375 -8.957031 3.109375 -8.6875 L 3.109375 0 L 1.6875 0 L 1.6875 -11.84375 L 3.109375 -11.84375 Z M 9.3125 -2.203125 "/></g></g></g><g fill="#ffffff" fill-opacity="1"><g transform="translate(259.435406, 74.651124)"><g><path d="M 9.265625 -1.1875 L 9.265625 0 L 1.6875 0 L 1.6875 -11.84375 L 9.265625 -11.84375 L 9.265625 -10.65625 L 3.109375 -10.65625 L 3.109375 -6.59375 L 8.328125 -6.59375 L 8.328125 -5.421875 L 3.109375 -5.421875 L 3.109375 -1.1875 Z M 9.265625 -1.1875 "/></g></g></g><g fill="#ffffff" fill-opacity="1"><g transform="translate(269.974669, 74.651124)"><g/></g></g><g fill="#ffffff" fill-opacity="1"><g transform="translate(274.203908, 74.651124)"><g><path d="M 1.6875 0 L 1.6875 -11.84375 L 7.953125 -11.84375 C 8.242188 -11.84375 8.515625 -11.726562 8.765625 -11.5 L 10.390625 -10.15625 C 10.660156 -9.925781 10.796875 -9.695312 10.796875 -9.46875 L 10.796875 -2.375 C 10.796875 -2.144531 10.660156 -1.914062 10.390625 -1.6875 L 8.765625 -0.34375 C 8.515625 -0.113281 8.242188 0 7.953125 0 Z M 9.375 -2.875 L 9.375 -8.96875 C 9.375 -9.195312 9.238281 -9.421875 8.96875 -9.640625 L 8.15625 -10.328125 C 7.90625 -10.546875 7.632812 -10.65625 7.34375 -10.65625 L 3.109375 -10.65625 L 3.109375 -1.1875 L 7.34375 -1.1875 C 7.632812 -1.1875 7.90625 -1.296875 8.15625 -1.515625 L 8.96875 -2.203125 C 9.238281 -2.421875 9.375 -2.644531 9.375 -2.875 Z M 9.375 -2.875 "/></g></g></g><g fill="#ffffff" fill-opacity="1"><g transform="translate(286.265701, 74.651124)"><g><path d="M 9.265625 -1.1875 L 9.265625 0 L 1.6875 0 L 1.6875 -11.84375 L 9.265625 -11.84375 L 9.265625 -10.65625 L 3.109375 -10.65625 L 3.109375 -6.59375 L 8.328125 -6.59375 L 8.328125 -5.421875 L 3.109375 -5.421875 L 3.109375 -1.1875 Z M 9.265625 -1.1875 "/></g></g></g><g fill="#ffffff" fill-opacity="1"><g transform="translate(296.804965, 74.651124)"><g><path d="M -0.09375 -11.84375 L 8.828125 -11.84375 L 8.828125 -10.65625 L 5.078125 -10.65625 L 5.078125 0 L 3.65625 0 L 3.65625 -10.65625 L -0.09375 -10.65625 Z M -0.09375 -11.84375 "/></g></g></g><g fill="#ffffff" fill-opacity="1"><g transform="translate(305.551047, 74.651124)"><g><path d="M 9.265625 -1.1875 L 9.265625 0 L 1.6875 0 L 1.6875 -11.84375 L 9.265625 -11.84375 L 9.265625 -10.65625 L 3.109375 -10.65625 L 3.109375 -6.59375 L 8.328125 -6.59375 L 8.328125 -5.421875 L 3.109375 -5.421875 L 3.109375 -1.1875 Z M 9.265625 -1.1875 "/></g></g></g><g fill="#ffffff" fill-opacity="1"><g transform="translate(316.09031, 74.651124)"><g><path d="M 10.390625 -9.640625 L 8.96875 -9.640625 L 8.96875 -9.96875 C 8.96875 -10.132812 8.957031 -10.242188 8.9375 -10.296875 C 8.925781 -10.347656 8.867188 -10.410156 8.765625 -10.484375 C 8.660156 -10.566406 8.578125 -10.613281 8.515625 -10.625 C 8.460938 -10.644531 8.335938 -10.65625 8.140625 -10.65625 L 3.9375 -10.65625 C 3.738281 -10.65625 3.609375 -10.644531 3.546875 -10.625 C 3.492188 -10.613281 3.414062 -10.566406 3.3125 -10.484375 C 3.21875 -10.410156 3.160156 -10.347656 3.140625 -10.296875 C 3.117188 -10.242188 3.109375 -10.132812 3.109375 -9.96875 L 3.109375 -1.875 C 3.109375 -1.707031 3.117188 -1.597656 3.140625 -1.546875 C 3.160156 -1.492188 3.21875 -1.425781 3.3125 -1.34375 C 3.414062 -1.269531 3.492188 -1.222656 3.546875 -1.203125 C 3.609375 -1.191406 3.738281 -1.1875 3.9375 -1.1875 L 8.140625 -1.1875 C 8.335938 -1.1875 8.460938 -1.191406 8.515625 -1.203125 C 8.578125 -1.222656 8.660156 -1.269531 8.765625 -1.34375 C 8.867188 -1.425781 8.925781 -1.492188 8.9375 -1.546875 C 8.957031 -1.597656 8.96875 -1.707031 8.96875 -1.875 L 8.96875 -2.203125 L 10.390625 -2.203125 L 10.390625 -1.515625 C 10.390625 -1.179688 10.253906 -0.898438 9.984375 -0.671875 L 9.578125 -0.34375 C 9.304688 -0.113281 9.035156 0 8.765625 0 L 3.3125 0 C 3.039062 0 2.769531 -0.113281 2.5 -0.34375 L 2.09375 -0.671875 C 1.820312 -0.898438 1.6875 -1.179688 1.6875 -1.515625 L 1.6875 -10.328125 C 1.6875 -10.660156 1.820312 -10.941406 2.09375 -11.171875 L 2.5 -11.5 C 2.769531 -11.726562 3.039062 -11.84375 3.3125 -11.84375 L 8.765625 -11.84375 C 9.035156 -11.84375 9.304688 -11.726562 9.578125 -11.5 L 9.984375 -11.171875 C 10.253906 -10.941406 10.390625 -10.660156 10.390625 -10.328125 Z M 10.390625 -9.640625 "/></g></g></g><g fill="#ffffff" fill-opacity="1"><g transform="translate(327.306253, 74.651124)"><g><path d="M -0.09375 -11.84375 L 8.828125 -11.84375 L 8.828125 -10.65625 L 5.078125 -10.65625 L 5.078125 0 L 3.65625 0 L 3.65625 -10.65625 L -0.09375 -10.65625 Z M -0.09375 -11.84375 "/></g></g></g><g fill="#ffffff" fill-opacity="1"><g transform="translate(336.052324, 74.651124)"><g><path d="M 1.6875 -11.84375 L 3.109375 -11.84375 L 3.109375 0 L 1.6875 0 Z M 1.6875 -11.84375 "/></g></g></g><g fill="#ffffff" fill-opacity="1"><g transform="translate(340.856715, 74.651124)"><g><path d="M 3.3125 -11.84375 L 9.515625 -11.84375 C 9.785156 -11.84375 10.054688 -11.726562 10.328125 -11.5 L 10.734375 -11.171875 C 11.003906 -10.941406 11.140625 -10.660156 11.140625 -10.328125 L 11.140625 -1.515625 C 11.140625 -1.179688 11.003906 -0.898438 10.734375 -0.671875 L 10.328125 -0.34375 C 10.054688 -0.113281 9.785156 0 9.515625 0 L 3.3125 0 C 3.039062 0 2.769531 -0.113281 2.5 -0.34375 L 2.09375 -0.671875 C 1.820312 -0.898438 1.6875 -1.179688 1.6875 -1.515625 L 1.6875 -10.328125 C 1.6875 -10.660156 1.820312 -10.941406 2.09375 -11.171875 L 2.5 -11.5 C 2.769531 -11.726562 3.039062 -11.84375 3.3125 -11.84375 Z M 9.71875 -1.875 L 9.71875 -9.96875 C 9.71875 -10.132812 9.707031 -10.242188 9.6875 -10.296875 C 9.664062 -10.347656 9.601562 -10.410156 9.5 -10.484375 C 9.40625 -10.566406 9.328125 -10.613281 9.265625 -10.625 C 9.210938 -10.644531 9.085938 -10.65625 8.890625 -10.65625 L 3.9375 -10.65625 C 3.738281 -10.65625 3.609375 -10.644531 3.546875 -10.625 C 3.492188 -10.613281 3.414062 -10.566406 3.3125 -10.484375 C 3.21875 -10.410156 3.160156 -10.347656 3.140625 -10.296875 C 3.117188 -10.242188 3.109375 -10.132812 3.109375 -9.96875 L 3.109375 -1.875 C 3.109375 -1.707031 3.117188 -1.597656 3.140625 -1.546875 C 3.160156 -1.492188 3.21875 -1.425781 3.3125 -1.34375 C 3.414062 -1.269531 3.492188 -1.222656 3.546875 -1.203125 C 3.609375 -1.191406 3.738281 -1.1875 3.9375 -1.1875 L 8.890625 -1.1875 C 9.085938 -1.1875 9.210938 -1.191406 9.265625 -1.203125 C 9.328125 -1.222656 9.40625 -1.269531 9.5 -1.34375 C 9.601562 -1.425781 9.664062 -1.492188 9.6875 -1.546875 C 9.707031 -1.597656 9.71875 -1.707031 9.71875 -1.875 Z M 9.71875 -1.875 "/></g></g></g><g fill="#ffffff" fill-opacity="1"><g transform="translate(353.679774, 74.651124)"><g><path d="M 9.3125 -2.203125 L 9.359375 -2.21875 C 9.273438 -2.488281 9.234375 -2.757812 9.234375 -3.03125 L 9.234375 -11.84375 L 10.65625 -11.84375 L 10.65625 0 L 9.234375 0 L 3.046875 -9.515625 L 3 -9.5 C 3.070312 -9.226562 3.109375 -8.957031 3.109375 -8.6875 L 3.109375 0 L 1.6875 0 L 1.6875 -11.84375 L 3.109375 -11.84375 Z M 9.3125 -2.203125 "/></g></g></g><g fill="#ffffff" fill-opacity="1"><g transform="translate(111.450488, 54.666717)"><g><path d="M 16.125 -15.9375 C 19.007812 -15.9375 20.941406 -15.457031 21.921875 -14.5 C 22.910156 -13.539062 23.40625 -11.628906 23.40625 -8.765625 L 23.40625 -6.921875 C 23.40625 -6.179688 23.394531 -5.660156 23.375 -5.359375 C 23.351562 -5.054688 23.257812 -4.4375 23.09375 -3.5 C 22.9375 -2.5625 22.390625 -1.742188 21.453125 -1.046875 C 20.515625 -0.347656 19.335938 0 17.921875 0 L 2.078125 0 L 2.078125 -15.9375 Z M 18.515625 -7.90625 L 18.515625 -8.046875 C 18.515625 -9.609375 18.335938 -10.660156 17.984375 -11.203125 C 17.640625 -11.742188 16.703125 -12.015625 15.171875 -12.015625 L 6.921875 -12.015625 L 6.921875 -3.890625 L 15.09375 -3.890625 C 16.59375 -3.890625 17.535156 -4.164062 17.921875 -4.71875 C 18.316406 -5.28125 18.515625 -6.34375 18.515625 -7.90625 Z M 18.515625 -7.90625 "/></g></g><g transform="translate(136.615984, 54.666717)"><g><path d="M 16.921875 -15.9375 C 18.828125 -15.9375 20.191406 -15.566406 21.015625 -14.828125 C 21.835938 -14.085938 22.25 -12.773438 22.25 -10.890625 C 22.25 -10.179688 22.207031 -9.570312 22.125 -9.0625 C 22.039062 -8.550781 21.878906 -8.101562 21.640625 -7.71875 C 21.410156 -7.34375 21.132812 -7.0625 20.8125 -6.875 C 20.488281 -6.695312 19.816406 -6.441406 18.796875 -6.109375 C 19.910156 -5.972656 20.726562 -5.691406 21.25 -5.265625 C 21.78125 -4.835938 22.046875 -4.101562 22.046875 -3.0625 L 22.046875 0 L 17.125 0 L 17.125 -1.53125 C 17.125 -2.300781 17.054688 -2.914062 16.921875 -3.375 C 16.796875 -3.84375 16.164062 -4.078125 15.03125 -4.078125 L 6.921875 -4.078125 L 6.921875 0 L 2.078125 0 L 2.078125 -15.9375 Z M 14.890625 -7.953125 C 15.984375 -7.953125 16.664062 -8.085938 16.9375 -8.359375 C 17.207031 -8.628906 17.34375 -9.234375 17.34375 -10.171875 C 17.34375 -10.703125 17.289062 -11.09375 17.1875 -11.34375 C 17.082031 -11.601562 16.863281 -11.78125 16.53125 -11.875 C 16.207031 -11.96875 15.941406 -12.019531 15.734375 -12.03125 C 15.535156 -12.050781 15.289062 -12.0625 15 -12.0625 L 6.921875 -12.0625 L 6.921875 -7.953125 Z M 14.890625 -7.953125 "/></g></g><g transform="translate(160.778126, 54.666717)"><g><path d="M 12.359375 -16.09375 L 16.21875 -16.078125 C 19.050781 -16.078125 20.988281 -15.609375 22.03125 -14.671875 C 23.070312 -13.734375 23.59375 -11.851562 23.59375 -9.03125 L 23.59375 -8.265625 C 23.59375 -4.953125 23.175781 -2.734375 22.34375 -1.609375 C 21.519531 -0.492188 19.429688 0.0625 16.078125 0.0625 L 12.421875 0.140625 L 10.890625 0.15625 L 7.59375 0.046875 C 5.75 0.046875 4.320312 -0.367188 3.3125 -1.203125 C 2.3125 -2.046875 1.8125 -3.398438 1.8125 -5.265625 L 1.765625 -8.1875 C 1.765625 -11.425781 2.179688 -13.539062 3.015625 -14.53125 C 3.847656 -15.53125 5.8125 -16.03125 8.90625 -16.03125 Z M 9.734375 -3.796875 L 12.328125 -3.75 L 14.8125 -3.78125 C 16.1875 -3.78125 17.171875 -3.925781 17.765625 -4.21875 C 18.359375 -4.507812 18.65625 -5.238281 18.65625 -6.40625 L 18.71875 -8.546875 C 18.71875 -9.273438 18.671875 -9.898438 18.578125 -10.421875 C 18.484375 -10.941406 18.300781 -11.328125 18.03125 -11.578125 C 17.757812 -11.828125 17.359375 -11.988281 16.828125 -12.0625 C 16.296875 -12.132812 15.726562 -12.171875 15.125 -12.171875 L 10.296875 -12.15625 C 9.191406 -12.15625 8.351562 -12.039062 7.78125 -11.8125 C 7.207031 -11.59375 6.875 -11.125 6.78125 -10.40625 C 6.695312 -9.6875 6.65625 -9.082031 6.65625 -8.59375 L 6.65625 -7.53125 C 6.65625 -6.0625 6.828125 -5.070312 7.171875 -4.5625 C 7.515625 -4.050781 8.367188 -3.796875 9.734375 -3.796875 Z M 9.734375 -3.796875 "/></g></g><g transform="translate(186.130292, 54.666717)"><g><path d="M 16.21875 0 L 6.609375 -11.96875 L 6.609375 0 L 2.046875 0 L 2.046875 -15.9375 L 9.78125 -15.9375 L 19.375 -3.984375 L 19.375 -15.9375 L 23.9375 -15.9375 L 23.9375 0 Z M 16.21875 0 "/></g></g><g transform="translate(212.14747, 54.666717)"><g><path d="M 19.859375 -15.9375 L 19.859375 -12.3125 L 6.921875 -12.3125 L 6.921875 -9.578125 L 18.984375 -9.578125 L 18.984375 -6.421875 L 6.921875 -6.421875 L 6.921875 -3.609375 L 19.859375 -3.609375 L 19.859375 0 L 2.078125 0 L 2.078125 -15.9375 Z M 19.859375 -15.9375 "/></g></g><g transform="translate(233.509558, 54.666717)"><g><path d="M 7.75 0 L 7.75 -11.953125 L 0.625 -11.953125 L 0.625 -15.9375 L 19.6875 -15.9375 L 19.6875 -11.953125 L 12.59375 -11.953125 L 12.59375 0 Z M 7.75 0 "/></g></g><g transform="translate(253.844958, 54.666717)"><g><path d="M 19.859375 -15.9375 L 19.859375 -12.3125 L 6.921875 -12.3125 L 6.921875 -9.578125 L 18.984375 -9.578125 L 18.984375 -6.421875 L 6.921875 -6.421875 L 6.921875 -3.609375 L 19.859375 -3.609375 L 19.859375 0 L 2.078125 0 L 2.078125 -15.9375 Z M 19.859375 -15.9375 "/></g></g><g transform="translate(275.207045, 54.666717)"><g><path d="M 22.171875 -5.375 C 22.171875 -3.175781 21.769531 -1.710938 20.96875 -0.984375 C 20.164062 -0.265625 18.578125 0.09375 16.203125 0.09375 L 12.5 0.15625 L 9.484375 0.109375 C 6.273438 0.109375 4.210938 -0.304688 3.296875 -1.140625 C 2.390625 -1.972656 1.9375 -3.273438 1.9375 -5.046875 L 1.796875 -8.390625 C 1.796875 -11.003906 2.175781 -12.914062 2.9375 -14.125 C 3.695312 -15.34375 5.257812 -15.953125 7.625 -15.953125 L 12.15625 -16.078125 C 13.476562 -16.078125 14.570312 -16.0625 15.4375 -16.03125 C 16.300781 -16.007812 17.34375 -15.9375 18.5625 -15.8125 C 19.789062 -15.6875 20.664062 -15.148438 21.1875 -14.203125 C 21.71875 -13.253906 21.984375 -11.960938 21.984375 -10.328125 L 17.28125 -10.328125 C 17.28125 -11.054688 17.097656 -11.539062 16.734375 -11.78125 C 16.378906 -12.03125 15.8125 -12.15625 15.03125 -12.15625 L 13.65625 -12.171875 L 12.328125 -12.171875 L 9.875 -12.15625 C 8.40625 -12.15625 7.503906 -11.882812 7.171875 -11.34375 C 6.847656 -10.800781 6.6875 -9.679688 6.6875 -7.984375 C 6.6875 -6.234375 6.878906 -5.09375 7.265625 -4.5625 C 7.648438 -4.039062 8.671875 -3.78125 10.328125 -3.78125 L 12.21875 -3.71875 L 14.703125 -3.75 C 15.660156 -3.75 16.347656 -3.882812 16.765625 -4.15625 C 17.179688 -4.425781 17.390625 -5.0625 17.390625 -6.0625 L 22.140625 -6.0625 Z M 22.171875 -5.375 "/></g></g><g transform="translate(299.077515, 54.666717)"><g><path d="M 7.75 0 L 7.75 -11.953125 L 0.625 -11.953125 L 0.625 -15.9375 L 19.6875 -15.9375 L 19.6875 -11.953125 L 12.59375 -11.953125 L 12.59375 0 Z M 7.75 0 "/></g></g><g transform="translate(319.412915, 54.666717)"><g><path d="M 12.359375 -16.09375 L 16.21875 -16.078125 C 19.050781 -16.078125 20.988281 -15.609375 22.03125 -14.671875 C 23.070312 -13.734375 23.59375 -11.851562 23.59375 -9.03125 L 23.59375 -8.265625 C 23.59375 -4.953125 23.175781 -2.734375 22.34375 -1.609375 C 21.519531 -0.492188 19.429688 0.0625 16.078125 0.0625 L 12.421875 0.140625 L 10.890625 0.15625 L 7.59375 0.046875 C 5.75 0.046875 4.320312 -0.367188 3.3125 -1.203125 C 2.3125 -2.046875 1.8125 -3.398438 1.8125 -5.265625 L 1.765625 -8.1875 C 1.765625 -11.425781 2.179688 -13.539062 3.015625 -14.53125 C 3.847656 -15.53125 5.8125 -16.03125 8.90625 -16.03125 Z M 9.734375 -3.796875 L 12.328125 -3.75 L 14.8125 -3.78125 C 16.1875 -3.78125 17.171875 -3.925781 17.765625 -4.21875 C 18.359375 -4.507812 18.65625 -5.238281 18.65625 -6.40625 L 18.71875 -8.546875 C 18.71875 -9.273438 18.671875 -9.898438 18.578125 -10.421875 C 18.484375 -10.941406 18.300781 -11.328125 18.03125 -11.578125 C 17.757812 -11.828125 17.359375 -11.988281 16.828125 -12.0625 C 16.296875 -12.132812 15.726562 -12.171875 15.125 -12.171875 L 10.296875 -12.15625 C 9.191406 -12.15625 8.351562 -12.039062 7.78125 -11.8125 C 7.207031 -11.59375 6.875 -11.125 6.78125 -10.40625 C 6.695312 -9.6875 6.65625 -9.082031 6.65625 -8.59375 L 6.65625 -7.53125 C 6.65625 -6.0625 6.828125 -5.070312 7.171875 -4.5625 C 7.515625 -4.050781 8.367188 -3.796875 9.734375 -3.796875 Z M 9.734375 -3.796875 "/></g></g><g transform="translate(344.765081, 54.666717)"><g><path d="M 16.921875 -15.9375 C 18.828125 -15.9375 20.191406 -15.566406 21.015625 -14.828125 C 21.835938 -14.085938 22.25 -12.773438 22.25 -10.890625 C 22.25 -10.179688 22.207031 -9.570312 22.125 -9.0625 C 22.039062 -8.550781 21.878906 -8.101562 21.640625 -7.71875 C 21.410156 -7.34375 21.132812 -7.0625 20.8125 -6.875 C 20.488281 -6.695312 19.816406 -6.441406 18.796875 -6.109375 C 19.910156 -5.972656 20.726562 -5.691406 21.25 -5.265625 C 21.78125 -4.835938 22.046875 -4.101562 22.046875 -3.0625 L 22.046875 0 L 17.125 0 L 17.125 -1.53125 C 17.125 -2.300781 17.054688 -2.914062 16.921875 -3.375 C 16.796875 -3.84375 16.164062 -4.078125 15.03125 -4.078125 L 6.921875 -4.078125 L 6.921875 0 L 2.078125 0 L 2.078125 -15.9375 Z M 14.890625 -7.953125 C 15.984375 -7.953125 16.664062 -8.085938 16.9375 -8.359375 C 17.207031 -8.628906 17.34375 -9.234375 17.34375 -10.171875 C 17.34375 -10.703125 17.289062 -11.09375 17.1875 -11.34375 C 17.082031 -11.601562 16.863281 -11.78125 16.53125 -11.875 C 16.207031 -11.96875 15.941406 -12.019531 15.734375 -12.03125 C 15.535156 -12.050781 15.289062 -12.0625 15 -12.0625 L 6.921875 -12.0625 L 6.921875 -7.953125 Z M 14.890625 -7.953125 "/></g></g></g></svg>