<svg xmlns="http://www.w3.org/2000/svg" xmlns:xlink="http://www.w3.org/1999/xlink" width="300" zoomAndPan="magnify" viewBox="0 0 224.87999 225" height="300" preserveAspectRatio="xMidYMid meet" version="1.0"><defs><clipPath id="a222edb52f"><path d="M 88.324219 89.167969 L 134.984375 89.167969 L 134.984375 135.832031 L 88.324219 135.832031 Z M 88.324219 89.167969 " clip-rule="nonzero"/></clipPath><clipPath id="24a372abbf"><path d="M 87.425781 88.269531 L 135.878906 88.269531 L 135.878906 136.722656 L 87.425781 136.722656 Z M 87.425781 88.269531 " clip-rule="nonzero"/></clipPath><clipPath id="d5c0903e3a"><path d="M 96.097656 96.945312 L 127.746094 96.945312 L 127.746094 128.589844 L 96.097656 128.589844 Z M 96.097656 96.945312 " clip-rule="nonzero"/></clipPath><clipPath id="8120bf4068"><path d="M 95.199219 96.042969 L 128.636719 96.042969 L 128.636719 129.484375 L 95.199219 129.484375 Z M 95.199219 96.042969 " clip-rule="nonzero"/></clipPath><clipPath id="2c5bafa2a8"><path d="M 80.875 81.71875 L 142.433594 81.71875 L 142.433594 143.28125 L 80.875 143.28125 Z M 80.875 81.71875 " clip-rule="nonzero"/></clipPath><clipPath id="7959441494"><path d="M 79.976562 80.820312 L 143.328125 80.820312 L 143.328125 144.171875 L 79.976562 144.171875 Z M 79.976562 80.820312 " clip-rule="nonzero"/></clipPath><clipPath id="9e888ab899"><path d="M 73.273438 74.386719 L 150.039062 74.386719 L 150.039062 151.148438 L 73.273438 151.148438 Z M 73.273438 74.386719 " clip-rule="nonzero"/></clipPath><clipPath id="247c21e0b3"><path d="M 72.375 73.484375 L 150.929688 73.484375 L 150.929688 152.042969 L 72.375 152.042969 Z M 72.375 73.484375 " clip-rule="nonzero"/></clipPath><clipPath id="88f4272a92"><path d="M 66.339844 66.402344 L 158.539062 66.402344 L 158.539062 158.597656 L 66.339844 158.597656 Z M 66.339844 66.402344 " clip-rule="nonzero"/></clipPath><clipPath id="4353f5e98f"><path d="M 65.441406 65.5 L 159.140625 65.5 L 159.140625 159.199219 L 65.441406 159.199219 Z M 65.441406 65.5 " clip-rule="nonzero"/></clipPath><clipPath id="bffa2bb01d"><path d="M 58.183594 59.296875 L 165.128906 59.296875 L 165.128906 166.238281 L 58.183594 166.238281 Z M 58.183594 59.296875 " clip-rule="nonzero"/></clipPath><clipPath id="6f3655be5c"><path d="M 57.28125 58.394531 L 165.976562 58.394531 L 165.976562 167.085938 L 57.28125 167.085938 Z M 57.28125 58.394531 " clip-rule="nonzero"/></clipPath><clipPath id="d1414bb155"><path d="M 26.085938 26.148438 L 198.496094 26.148438 L 198.496094 198.554688 L 26.085938 198.554688 Z M 26.085938 26.148438 " clip-rule="nonzero"/></clipPath></defs><g clip-path="url(#a222edb52f)"><path stroke-linecap="butt" transform="matrix(0.215593, 0, 0, 0.215593, 87.429148, 88.274005)" fill="none" stroke-linejoin="miter" d="M 0.999026 0.993892 L 224.999726 0.993892 L 224.999726 224.994592 L 0.999026 224.994592 Z M 0.999026 0.993892 " stroke="#989898" stroke-width="2" stroke-opacity="1" stroke-miterlimit="4"/></g><g clip-path="url(#24a372abbf)"><path stroke-linecap="butt" transform="matrix(0.7496, 0, 0, 0.7496, 87.425006, 88.26986)" fill="none" stroke-linejoin="miter" d="M 0.0010346 -0.000438884 L 0.0010346 64.638211 L 64.639685 64.638211 L 64.639685 -0.000438884 L 0.0010346 -0.000438884 " stroke="#0009e4" stroke-width="6" stroke-opacity="1" stroke-miterlimit="4"/></g><g clip-path="url(#d5c0903e3a)"><path stroke-linecap="butt" transform="matrix(0.149257, 0, 0, 0.149257, 95.2057, 96.050554)" fill="none" stroke-linejoin="miter" d="M 1.003434 0.996034 L 225.004147 0.996034 L 225.004147 224.996746 L 1.003434 224.996746 Z M 1.003434 0.996034 " stroke="#989898" stroke-width="2" stroke-opacity="1" stroke-miterlimit="4"/></g><g clip-path="url(#8120bf4068)"><path stroke-linecap="butt" transform="matrix(0.7496, 0, 0, 0.7496, 95.199192, 96.044046)" fill="none" stroke-linejoin="miter" d="M 0.0000359525 -0.00143753 L 0.0000359525 44.610898 L 44.607161 44.610898 L 44.607161 -0.00143753 L 0.0000359525 -0.00143753 " stroke="#0009e4" stroke-width="6" stroke-opacity="1" stroke-miterlimit="4"/></g><g clip-path="url(#2c5bafa2a8)"><path stroke-linecap="butt" transform="matrix(0.281929, 0, 0, 0.281929, 79.979787, 80.824642)" fill="none" stroke-linejoin="miter" d="M 1.000008 0.996091 L 225.000773 0.996091 L 225.000773 224.996855 L 1.000008 224.996855 Z M 1.000008 0.996091 " stroke="#989898" stroke-width="2" stroke-opacity="1" stroke-miterlimit="4"/></g><g clip-path="url(#7959441494)"><path stroke-linecap="butt" transform="matrix(0.7496, 0, 0, 0.7496, 79.975513, 80.820367)" fill="none" stroke-linejoin="miter" d="M 0.00140043 -0.0000730559 L 0.00140043 84.513753 L 84.515226 84.513753 L 84.515226 -0.0000730559 L 0.00140043 -0.0000730559 " stroke="#0009e4" stroke-width="6" stroke-opacity="1" stroke-miterlimit="4"/></g><g clip-path="url(#9e888ab899)"><path stroke-linecap="butt" transform="matrix(0.348265, 0, 0, 0.348265, 72.374658, 73.486922)" fill="none" stroke-linejoin="miter" d="M 0.999232 1.002154 L 224.999944 1.002154 L 224.999944 225.002865 L 0.999232 225.002865 Z M 0.999232 1.002154 " stroke="#989898" stroke-width="2" stroke-opacity="1" stroke-miterlimit="4"/></g><g clip-path="url(#247c21e0b3)"><path stroke-linecap="butt" transform="matrix(0.7496, 0, 0, 0.7496, 72.373207, 73.485473)" fill="none" stroke-linejoin="miter" d="M 0.00239205 -0.00146495 L 0.00239205 104.799229 L 104.797875 104.799229 L 104.797875 -0.00146495 L 0.00239205 -0.00146495 " stroke="#0009e4" stroke-width="6" stroke-opacity="1" stroke-miterlimit="4"/></g><g clip-path="url(#88f4272a92)"><path stroke-linecap="butt" transform="matrix(0.414602, 0, 0, 0.414602, 65.438793, 65.498808)" fill="none" stroke-linejoin="miter" d="M 0.99558 1.001573 L 224.996303 1.001573 L 224.996303 225.002297 L 0.99558 225.002297 Z M 0.99558 1.001573 " stroke="#989898" stroke-width="2" stroke-opacity="1" stroke-miterlimit="4"/></g><g clip-path="url(#4353f5e98f)"><path stroke-linecap="butt" transform="matrix(0.7496, 0, 0, 0.7496, 65.441137, 65.501152)" fill="none" stroke-linejoin="miter" d="M 0.000359197 -0.00153681 L 0.000359197 125.388265 L 125.390161 125.388265 L 125.390161 -0.00153681 L 0.000359197 -0.00153681 " stroke="#0009e4" stroke-width="6" stroke-opacity="1" stroke-miterlimit="4"/></g><g clip-path="url(#bffa2bb01d)"><path stroke-linecap="butt" transform="matrix(0.480938, 0, 0, 0.480938, 57.28288, 58.395156)" fill="none" stroke-linejoin="miter" d="M 1.003758 0.997726 L 224.996414 0.997726 L 224.996414 224.998504 L 1.003758 224.998504 Z M 1.003758 0.997726 " stroke="#989898" stroke-width="2" stroke-opacity="1" stroke-miterlimit="4"/></g><g clip-path="url(#6f3655be5c)"><path stroke-linecap="butt" transform="matrix(0.7496, 0, 0, 0.7496, 57.283201, 58.395477)" fill="none" stroke-linejoin="miter" d="M -0.00260315 -0.00126183 L -0.00260315 145.060492 L 145.064362 145.060492 L 145.064362 -0.00126183 L -0.00260315 -0.00126183 " stroke="#0009e4" stroke-width="6" stroke-opacity="1" stroke-miterlimit="4"/></g><g clip-path="url(#d1414bb155)"><path fill="#0009e4" d="M 112.4375 26.148438 C 64.792969 26.148438 26.085938 64.855469 26.085938 112.496094 C 26.085938 160.140625 64.792969 198.847656 112.4375 198.847656 C 160.082031 198.847656 198.789062 160.140625 198.789062 112.496094 C 198.789062 64.855469 160.082031 26.148438 112.4375 26.148438 Z M 112.4375 29.902344 C 158.101562 29.902344 195.035156 66.832031 195.035156 112.496094 C 195.035156 158.160156 158.101562 195.09375 112.4375 195.09375 C 66.773438 195.09375 29.839844 158.160156 29.839844 112.496094 C 29.839844 66.832031 66.773438 29.902344 112.4375 29.902344 Z M 112.4375 29.902344 " fill-opacity="1" fill-rule="nonzero"/></g></svg>