<svg xmlns="http://www.w3.org/2000/svg" xmlns:xlink="http://www.w3.org/1999/xlink" width="500" zoomAndPan="magnify" viewBox="0 0 375 112.499997" height="150" preserveAspectRatio="xMidYMid meet" version="1.0"><defs><g/><clipPath id="472db2eab9"><path d="M 42.066406 42.648438 L 68.765625 42.648438 L 68.765625 69.351562 L 42.066406 69.351562 Z M 42.066406 42.648438 " clip-rule="nonzero"/></clipPath><clipPath id="775f4b81fd"><path d="M 41.167969 41.753906 L 69.542969 41.753906 L 69.542969 70.128906 L 41.167969 70.128906 Z M 41.167969 41.753906 " clip-rule="nonzero"/></clipPath><clipPath id="e0ca122d9a"><path d="M 46.636719 47.222656 L 64.511719 47.222656 L 64.511719 65.09375 L 46.636719 65.09375 Z M 46.636719 47.222656 " clip-rule="nonzero"/></clipPath><clipPath id="0908506ed4"><path d="M 45.738281 46.324219 L 65.152344 46.324219 L 65.152344 65.738281 L 45.738281 65.738281 Z M 45.738281 46.324219 " clip-rule="nonzero"/></clipPath><clipPath id="594d21e563"><path d="M 37.683594 38.269531 L 73.148438 38.269531 L 73.148438 73.730469 L 37.683594 73.730469 Z M 37.683594 38.269531 " clip-rule="nonzero"/></clipPath><clipPath id="4bd3dbbcf0"><path d="M 36.789062 37.375 L 74.042969 37.375 L 74.042969 74.625 L 36.789062 74.625 Z M 36.789062 37.375 " clip-rule="nonzero"/></clipPath><clipPath id="72b613af97"><path d="M 33.214844 33.957031 L 77.617188 33.957031 L 77.617188 78.359375 L 33.214844 78.359375 Z M 33.214844 33.957031 " clip-rule="nonzero"/></clipPath><clipPath id="691d422e42"><path d="M 32.320312 33.0625 L 78.507812 33.0625 L 78.507812 79.25 L 32.320312 79.25 Z M 32.320312 33.0625 " clip-rule="nonzero"/></clipPath><clipPath id="14c7d18537"><path d="M 29.140625 29.261719 L 82.617188 29.261719 L 82.617188 82.738281 L 29.140625 82.738281 Z M 29.140625 29.261719 " clip-rule="nonzero"/></clipPath><clipPath id="3804ec1e8e"><path d="M 28.242188 28.367188 L 83.496094 28.367188 L 83.496094 83.621094 L 28.242188 83.621094 Z M 28.242188 28.367188 " clip-rule="nonzero"/></clipPath><clipPath id="6d768ea4b3"><path d="M 24.34375 25.085938 L 86.488281 25.085938 L 86.488281 87.230469 L 24.34375 87.230469 Z M 24.34375 25.085938 " clip-rule="nonzero"/></clipPath><clipPath id="4804317246"><path d="M 23.445312 24.1875 L 87.378906 24.1875 L 87.378906 88.125 L 23.445312 88.125 Z M 23.445312 24.1875 " clip-rule="nonzero"/></clipPath><clipPath id="074060107c"><path d="M 5.101562 5.226562 L 106.652344 5.226562 L 106.652344 106.777344 L 5.101562 106.777344 Z M 5.101562 5.226562 " clip-rule="nonzero"/></clipPath><clipPath id="f9cac7dd24"><rect x="0" width="254" y="0" height="22"/></clipPath><clipPath id="7e18be0b41"><rect x="0" width="162" y="0" height="28"/></clipPath></defs><g clip-path="url(#472db2eab9)"><path stroke-linecap="butt" transform="matrix(0.125548, 0, 0, 0.125548, 41.165761, 41.75122)" fill="none" stroke-linejoin="miter" d="M 1.013219 0.985916 L 224.999715 0.985916 L 224.999715 225.003526 L 1.013219 225.003526 Z M 1.013219 0.985916 " stroke="#989898" stroke-width="2" stroke-opacity="1" stroke-miterlimit="4"/></g><g clip-path="url(#775f4b81fd)"><path stroke-linecap="butt" transform="matrix(0.746681, 0, 0, 0.746681, 41.168831, 41.75429)" fill="none" stroke-linejoin="miter" d="M -0.00115528 -0.000514474 L -0.00115528 38.157914 L 38.157273 38.157914 L 38.157273 -0.000514474 L -0.00115528 -0.000514474 " stroke="#ffffff" stroke-width="6" stroke-opacity="1" stroke-miterlimit="4"/></g><g clip-path="url(#e0ca122d9a)"><path stroke-linecap="butt" transform="matrix(0.0859014, 0, 0, 0.0859014, 45.730467, 46.315919)" fill="none" stroke-linejoin="miter" d="M 1.000444 1.006098 L 225.003678 1.006098 L 225.003678 225.009331 L 1.000444 225.009331 Z M 1.000444 1.006098 " stroke="#989898" stroke-width="2" stroke-opacity="1" stroke-miterlimit="4"/></g><g clip-path="url(#0908506ed4)"><path stroke-linecap="butt" transform="matrix(0.746681, 0, 0, 0.746681, 45.739893, 46.325345)" fill="none" stroke-linejoin="miter" d="M -0.00215831 -0.00150791 L -0.00215831 26.32854 L 26.32789 26.32854 L 26.32789 -0.00150791 L -0.00215831 -0.00150791 " stroke="#ffffff" stroke-width="6" stroke-opacity="1" stroke-miterlimit="4"/></g><g clip-path="url(#594d21e563)"><path stroke-linecap="butt" transform="matrix(0.165195, 0, 0, 0.165195, 36.790318, 37.375774)" fill="none" stroke-linejoin="miter" d="M 1.00919 0.988462 L 225.010591 0.988462 L 225.010591 224.989862 L 1.00919 224.989862 Z M 1.00919 0.988462 " stroke="#989898" stroke-width="2" stroke-opacity="1" stroke-miterlimit="4"/></g><g clip-path="url(#4bd3dbbcf0)"><path stroke-linecap="butt" transform="matrix(0.746681, 0, 0, 0.746681, 36.788685, 37.37414)" fill="none" stroke-linejoin="miter" d="M 0.000505887 0.00115149 L 0.000505887 49.888562 L 49.893148 49.888562 L 49.893148 0.00115149 L 0.000505887 0.00115149 " stroke="#ffffff" stroke-width="6" stroke-opacity="1" stroke-miterlimit="4"/></g><g clip-path="url(#72b613af97)"><path stroke-linecap="butt" transform="matrix(0.204842, 0, 0, 0.204842, 32.320387, 33.06308)" fill="none" stroke-linejoin="miter" d="M 0.991253 1.007858 L 225.001788 1.007858 L 225.001788 224.999323 L 0.991253 224.999323 Z M 0.991253 1.007858 " stroke="#989898" stroke-width="2" stroke-opacity="1" stroke-miterlimit="4"/></g><g clip-path="url(#691d422e42)"><path stroke-linecap="butt" transform="matrix(0.746681, 0, 0, 0.746681, 32.318692, 33.061385)" fill="none" stroke-linejoin="miter" d="M 0.00217001 0.00149376 L 0.00217001 61.858539 L 61.859215 61.858539 L 61.859215 0.00149376 L 0.00217001 0.00149376 " stroke="#ffffff" stroke-width="6" stroke-opacity="1" stroke-miterlimit="4"/></g><g clip-path="url(#14c7d18537)"><path stroke-linecap="butt" transform="matrix(0.244489, 0, 0, 0.244489, 28.242619, 28.366609)" fill="none" stroke-linejoin="miter" d="M 1.004799 0.992953 L 225.005516 0.992953 L 225.005516 224.993671 L 1.004799 224.993671 Z M 1.004799 0.992953 " stroke="#989898" stroke-width="2" stroke-opacity="1" stroke-miterlimit="4"/></g><g clip-path="url(#3804ec1e8e)"><path stroke-linecap="butt" transform="matrix(0.746681, 0, 0, 0.746681, 28.242778, 28.366768)" fill="none" stroke-linejoin="miter" d="M -0.000790807 0.000562336 L -0.000790807 74.015568 L 74.014214 74.015568 L 74.014214 0.000562336 L -0.000790807 0.000562336 " stroke="#ffffff" stroke-width="6" stroke-opacity="1" stroke-miterlimit="4"/></g><g clip-path="url(#6d768ea4b3)"><path stroke-linecap="butt" transform="matrix(0.284135, 0, 0, 0.284135, 23.449346, 24.192039)" fill="none" stroke-linejoin="miter" d="M 1.003144 1.001367 L 224.996808 1.001367 L 224.996808 224.995031 L 1.003144 224.995031 Z M 1.003144 1.001367 " stroke="#989898" stroke-width="2" stroke-opacity="1" stroke-miterlimit="4"/></g><g clip-path="url(#4804317246)"><path stroke-linecap="butt" transform="matrix(0.746681, 0, 0, 0.746681, 23.44609, 24.188783)" fill="none" stroke-linejoin="miter" d="M -0.00104188 -0.00171813 L -0.00104188 85.627182 L 85.622627 85.627182 L 85.622627 -0.00171813 L -0.00104188 -0.00171813 " stroke="#ffffff" stroke-width="6" stroke-opacity="1" stroke-miterlimit="4"/></g><g clip-path="url(#074060107c)"><path fill="#ffffff" d="M 55.871094 5.226562 C 27.859375 5.226562 5.101562 27.984375 5.101562 55.996094 C 5.101562 84.007812 27.859375 106.765625 55.871094 106.765625 C 83.882812 106.765625 106.640625 84.007812 106.640625 55.996094 C 106.640625 27.984375 83.882812 5.226562 55.871094 5.226562 Z M 55.871094 7.433594 C 82.71875 7.433594 104.433594 29.148438 104.433594 55.996094 C 104.433594 82.84375 82.71875 104.558594 55.871094 104.558594 C 29.023438 104.558594 7.3125 82.84375 7.3125 55.996094 C 7.3125 29.148438 29.023438 7.433594 55.871094 7.433594 Z M 55.871094 7.433594 " fill-opacity="1" fill-rule="nonzero"/></g><g transform="matrix(1, 0, 0, 1, 114, 59)"><g clip-path="url(#f9cac7dd24)"><g fill="#ffffff" fill-opacity="1"><g transform="translate(0.754533, 15.911826)"><g><path d="M 0.84375 0 L 4.921875 -11.875 L 6.921875 -11.875 L 11.078125 0 L 9.640625 0 L 8.765625 -2.453125 L 3.125 -2.453125 L 2.265625 0 Z M 5.953125 -10.84375 L 5.875 -10.84375 C 5.875 -10.707031 5.835938 -10.546875 5.765625 -10.359375 L 3.46875 -3.5625 L 8.40625 -3.5625 L 6.0625 -10.359375 C 5.988281 -10.546875 5.953125 -10.707031 5.953125 -10.84375 Z M 5.953125 -10.84375 "/></g></g></g><g fill="#ffffff" fill-opacity="1"><g transform="translate(12.673042, 15.911826)"><g><path d="M 1.703125 0 L 1.703125 -11.875 L 7.96875 -11.875 C 8.257812 -11.875 8.53125 -11.757812 8.78125 -11.53125 L 10.40625 -10.171875 C 10.675781 -9.941406 10.8125 -9.71875 10.8125 -9.5 L 10.8125 -2.375 C 10.8125 -2.144531 10.675781 -1.921875 10.40625 -1.703125 L 8.78125 -0.34375 C 8.53125 -0.113281 8.257812 0 7.96875 0 Z M 9.390625 -2.875 L 9.390625 -8.984375 C 9.390625 -9.210938 9.253906 -9.4375 8.984375 -9.65625 L 8.171875 -10.34375 C 7.921875 -10.570312 7.648438 -10.6875 7.359375 -10.6875 L 3.125 -10.6875 L 3.125 -1.1875 L 7.359375 -1.1875 C 7.648438 -1.1875 7.921875 -1.300781 8.171875 -1.53125 L 8.984375 -2.203125 C 9.253906 -2.429688 9.390625 -2.65625 9.390625 -2.875 Z M 9.390625 -2.875 "/></g></g></g><g fill="#ffffff" fill-opacity="1"><g transform="translate(24.76109, 15.911826)"><g><path d="M 5.09375 -1.046875 L 5.15625 -1.046875 C 5.15625 -1.117188 5.1875 -1.265625 5.25 -1.484375 L 8.484375 -11.875 L 9.984375 -11.875 L 6.046875 0 L 4.1875 0 L 0.25 -11.875 L 1.765625 -11.875 L 4.984375 -1.484375 C 5.054688 -1.265625 5.09375 -1.117188 5.09375 -1.046875 Z M 5.09375 -1.046875 "/></g></g></g><g fill="#ffffff" fill-opacity="1"><g transform="translate(35.001174, 15.911826)"><g><path d="M 0.84375 0 L 4.921875 -11.875 L 6.921875 -11.875 L 11.078125 0 L 9.640625 0 L 8.765625 -2.453125 L 3.125 -2.453125 L 2.265625 0 Z M 5.953125 -10.84375 L 5.875 -10.84375 C 5.875 -10.707031 5.835938 -10.546875 5.765625 -10.359375 L 3.46875 -3.5625 L 8.40625 -3.5625 L 6.0625 -10.359375 C 5.988281 -10.546875 5.953125 -10.707031 5.953125 -10.84375 Z M 5.953125 -10.84375 "/></g></g></g><g fill="#ffffff" fill-opacity="1"><g transform="translate(46.919684, 15.911826)"><g><path d="M 9.328125 -2.203125 L 9.375 -2.21875 C 9.289062 -2.488281 9.25 -2.757812 9.25 -3.03125 L 9.25 -11.875 L 10.6875 -11.875 L 10.6875 0 L 9.25 0 L 3.046875 -9.53125 L 3 -9.515625 C 3.082031 -9.242188 3.125 -8.972656 3.125 -8.703125 L 3.125 0 L 1.703125 0 L 1.703125 -11.875 L 3.125 -11.875 Z M 9.328125 -2.203125 "/></g></g></g><g fill="#ffffff" fill-opacity="1"><g transform="translate(59.295951, 15.911826)"><g><path d="M 10.40625 -9.65625 L 8.984375 -9.65625 L 8.984375 -9.984375 C 8.984375 -10.148438 8.972656 -10.257812 8.953125 -10.3125 C 8.941406 -10.363281 8.882812 -10.425781 8.78125 -10.5 C 8.675781 -10.582031 8.59375 -10.632812 8.53125 -10.65625 C 8.476562 -10.675781 8.351562 -10.6875 8.15625 -10.6875 L 3.953125 -10.6875 C 3.742188 -10.6875 3.609375 -10.675781 3.546875 -10.65625 C 3.492188 -10.632812 3.414062 -10.582031 3.3125 -10.5 C 3.21875 -10.425781 3.160156 -10.363281 3.140625 -10.3125 C 3.128906 -10.257812 3.125 -10.148438 3.125 -9.984375 L 3.125 -1.875 C 3.125 -1.707031 3.128906 -1.597656 3.140625 -1.546875 C 3.160156 -1.492188 3.21875 -1.425781 3.3125 -1.34375 C 3.414062 -1.269531 3.492188 -1.222656 3.546875 -1.203125 C 3.609375 -1.191406 3.742188 -1.1875 3.953125 -1.1875 L 8.15625 -1.1875 C 8.351562 -1.1875 8.476562 -1.191406 8.53125 -1.203125 C 8.59375 -1.222656 8.675781 -1.269531 8.78125 -1.34375 C 8.882812 -1.425781 8.941406 -1.492188 8.953125 -1.546875 C 8.972656 -1.597656 8.984375 -1.707031 8.984375 -1.875 L 8.984375 -2.203125 L 10.40625 -2.203125 L 10.40625 -1.53125 C 10.40625 -1.1875 10.269531 -0.898438 10 -0.671875 L 9.59375 -0.34375 C 9.320312 -0.113281 9.050781 0 8.78125 0 L 3.328125 0 C 3.054688 0 2.785156 -0.113281 2.515625 -0.34375 L 2.109375 -0.671875 C 1.835938 -0.898438 1.703125 -1.1875 1.703125 -1.53125 L 1.703125 -10.34375 C 1.703125 -10.675781 1.835938 -10.957031 2.109375 -11.1875 L 2.515625 -11.53125 C 2.785156 -11.757812 3.054688 -11.875 3.328125 -11.875 L 8.78125 -11.875 C 9.050781 -11.875 9.320312 -11.757812 9.59375 -11.53125 L 10 -11.1875 C 10.269531 -10.957031 10.40625 -10.675781 10.40625 -10.34375 Z M 10.40625 -9.65625 "/></g></g></g><g fill="#ffffff" fill-opacity="1"><g transform="translate(70.536308, 15.911826)"><g><path d="M 9.296875 -1.1875 L 9.296875 0 L 1.703125 0 L 1.703125 -11.875 L 9.296875 -11.875 L 9.296875 -10.6875 L 3.125 -10.6875 L 3.125 -6.609375 L 8.34375 -6.609375 L 8.34375 -5.421875 L 3.125 -5.421875 L 3.125 -1.1875 Z M 9.296875 -1.1875 "/></g></g></g><g fill="#ffffff" fill-opacity="1"><g transform="translate(81.098512, 15.911826)"><g><path d="M 1.703125 0 L 1.703125 -11.875 L 7.96875 -11.875 C 8.257812 -11.875 8.53125 -11.757812 8.78125 -11.53125 L 10.40625 -10.171875 C 10.675781 -9.941406 10.8125 -9.71875 10.8125 -9.5 L 10.8125 -2.375 C 10.8125 -2.144531 10.675781 -1.921875 10.40625 -1.703125 L 8.78125 -0.34375 C 8.53125 -0.113281 8.257812 0 7.96875 0 Z M 9.390625 -2.875 L 9.390625 -8.984375 C 9.390625 -9.210938 9.253906 -9.4375 8.984375 -9.65625 L 8.171875 -10.34375 C 7.921875 -10.570312 7.648438 -10.6875 7.359375 -10.6875 L 3.125 -10.6875 L 3.125 -1.1875 L 7.359375 -1.1875 C 7.648438 -1.1875 7.921875 -1.300781 8.171875 -1.53125 L 8.984375 -2.203125 C 9.253906 -2.429688 9.390625 -2.65625 9.390625 -2.875 Z M 9.390625 -2.875 "/></g></g></g><g fill="#ffffff" fill-opacity="1"><g transform="translate(93.18656, 15.911826)"><g/></g></g><g fill="#ffffff" fill-opacity="1"><g transform="translate(97.425004, 15.911826)"><g><path d="M 1.703125 0 L 1.703125 -11.875 L 7.96875 -11.875 C 8.257812 -11.875 8.53125 -11.757812 8.78125 -11.53125 L 10.40625 -10.171875 C 10.675781 -9.941406 10.8125 -9.71875 10.8125 -9.5 L 10.8125 -2.375 C 10.8125 -2.144531 10.675781 -1.921875 10.40625 -1.703125 L 8.78125 -0.34375 C 8.53125 -0.113281 8.257812 0 7.96875 0 Z M 9.390625 -2.875 L 9.390625 -8.984375 C 9.390625 -9.210938 9.253906 -9.4375 8.984375 -9.65625 L 8.171875 -10.34375 C 7.921875 -10.570312 7.648438 -10.6875 7.359375 -10.6875 L 3.125 -10.6875 L 3.125 -1.1875 L 7.359375 -1.1875 C 7.648438 -1.1875 7.921875 -1.300781 8.171875 -1.53125 L 8.984375 -2.203125 C 9.253906 -2.429688 9.390625 -2.65625 9.390625 -2.875 Z M 9.390625 -2.875 "/></g></g></g><g fill="#ffffff" fill-opacity="1"><g transform="translate(109.513052, 15.911826)"><g><path d="M 1.703125 -11.875 L 7.96875 -11.875 C 8.238281 -11.875 8.507812 -11.757812 8.78125 -11.53125 L 9.1875 -11.1875 C 9.457031 -10.957031 9.59375 -10.675781 9.59375 -10.34375 L 9.59375 -6.375 C 9.59375 -6.019531 9.453125 -5.726562 9.171875 -5.5 L 8.75 -5.140625 C 8.5 -4.929688 8.238281 -4.828125 7.96875 -4.828125 L 7.015625 -4.828125 L 8.765625 -2.125 C 8.890625 -1.925781 8.976562 -1.800781 9.03125 -1.75 C 9.082031 -1.695312 9.195312 -1.625 9.375 -1.53125 L 9.5625 -1.421875 C 9.757812 -1.304688 9.875 -1.210938 9.90625 -1.140625 C 9.945312 -1.078125 9.96875 -0.914062 9.96875 -0.65625 L 9.96875 0 L 9.546875 0 C 9.335938 0 9.195312 -0.0078125 9.125 -0.03125 C 9.050781 -0.0507812 8.925781 -0.125 8.75 -0.25 L 8.421875 -0.46875 C 8.171875 -0.644531 7.96875 -0.867188 7.8125 -1.140625 L 5.5625 -4.75 L 3.125 -4.75 L 3.125 0 L 1.703125 0 Z M 3.125 -10.6875 L 3.125 -5.9375 L 7.34375 -5.9375 C 7.539062 -5.9375 7.664062 -5.941406 7.71875 -5.953125 C 7.78125 -5.972656 7.863281 -6.019531 7.96875 -6.09375 C 8.070312 -6.175781 8.128906 -6.242188 8.140625 -6.296875 C 8.160156 -6.347656 8.171875 -6.457031 8.171875 -6.625 L 8.171875 -9.984375 C 8.171875 -10.148438 8.160156 -10.257812 8.140625 -10.3125 C 8.128906 -10.363281 8.070312 -10.425781 7.96875 -10.5 C 7.863281 -10.582031 7.78125 -10.632812 7.71875 -10.65625 C 7.664062 -10.675781 7.539062 -10.6875 7.34375 -10.6875 Z M 3.125 -10.6875 "/></g></g></g><g fill="#ffffff" fill-opacity="1"><g transform="translate(120.922947, 15.911826)"><g><path d="M 3.328125 -11.875 L 9.53125 -11.875 C 9.800781 -11.875 10.070312 -11.757812 10.34375 -11.53125 L 10.75 -11.1875 C 11.019531 -10.957031 11.15625 -10.675781 11.15625 -10.34375 L 11.15625 -1.53125 C 11.15625 -1.1875 11.019531 -0.898438 10.75 -0.671875 L 10.34375 -0.34375 C 10.070312 -0.113281 9.800781 0 9.53125 0 L 3.328125 0 C 3.054688 0 2.785156 -0.113281 2.515625 -0.34375 L 2.109375 -0.671875 C 1.835938 -0.898438 1.703125 -1.1875 1.703125 -1.53125 L 1.703125 -10.34375 C 1.703125 -10.675781 1.835938 -10.957031 2.109375 -11.1875 L 2.515625 -11.53125 C 2.785156 -11.757812 3.054688 -11.875 3.328125 -11.875 Z M 9.734375 -1.875 L 9.734375 -9.984375 C 9.734375 -10.148438 9.722656 -10.257812 9.703125 -10.3125 C 9.691406 -10.363281 9.632812 -10.425781 9.53125 -10.5 C 9.425781 -10.582031 9.34375 -10.632812 9.28125 -10.65625 C 9.226562 -10.675781 9.101562 -10.6875 8.90625 -10.6875 L 3.953125 -10.6875 C 3.742188 -10.6875 3.609375 -10.675781 3.546875 -10.65625 C 3.492188 -10.632812 3.414062 -10.582031 3.3125 -10.5 C 3.21875 -10.425781 3.160156 -10.363281 3.140625 -10.3125 C 3.128906 -10.257812 3.125 -10.148438 3.125 -9.984375 L 3.125 -1.875 C 3.125 -1.707031 3.128906 -1.597656 3.140625 -1.546875 C 3.160156 -1.492188 3.21875 -1.425781 3.3125 -1.34375 C 3.414062 -1.269531 3.492188 -1.222656 3.546875 -1.203125 C 3.609375 -1.191406 3.742188 -1.1875 3.953125 -1.1875 L 8.90625 -1.1875 C 9.101562 -1.1875 9.226562 -1.191406 9.28125 -1.203125 C 9.34375 -1.222656 9.425781 -1.269531 9.53125 -1.34375 C 9.632812 -1.425781 9.691406 -1.492188 9.703125 -1.546875 C 9.722656 -1.597656 9.734375 -1.707031 9.734375 -1.875 Z M 9.734375 -1.875 "/></g></g></g><g fill="#ffffff" fill-opacity="1"><g transform="translate(133.773917, 15.911826)"><g><path d="M 9.328125 -2.203125 L 9.375 -2.21875 C 9.289062 -2.488281 9.25 -2.757812 9.25 -3.03125 L 9.25 -11.875 L 10.6875 -11.875 L 10.6875 0 L 9.25 0 L 3.046875 -9.53125 L 3 -9.515625 C 3.082031 -9.242188 3.125 -8.972656 3.125 -8.703125 L 3.125 0 L 1.703125 0 L 1.703125 -11.875 L 3.125 -11.875 Z M 9.328125 -2.203125 "/></g></g></g><g fill="#ffffff" fill-opacity="1"><g transform="translate(146.150184, 15.911826)"><g><path d="M 9.296875 -1.1875 L 9.296875 0 L 1.703125 0 L 1.703125 -11.875 L 9.296875 -11.875 L 9.296875 -10.6875 L 3.125 -10.6875 L 3.125 -6.609375 L 8.34375 -6.609375 L 8.34375 -5.421875 L 3.125 -5.421875 L 3.125 -1.1875 Z M 9.296875 -1.1875 "/></g></g></g><g fill="#ffffff" fill-opacity="1"><g transform="translate(156.712388, 15.911826)"><g/></g></g><g fill="#ffffff" fill-opacity="1"><g transform="translate(160.950833, 15.911826)"><g><path d="M 1.703125 0 L 1.703125 -11.875 L 7.96875 -11.875 C 8.257812 -11.875 8.53125 -11.757812 8.78125 -11.53125 L 10.40625 -10.171875 C 10.675781 -9.941406 10.8125 -9.71875 10.8125 -9.5 L 10.8125 -2.375 C 10.8125 -2.144531 10.675781 -1.921875 10.40625 -1.703125 L 8.78125 -0.34375 C 8.53125 -0.113281 8.257812 0 7.96875 0 Z M 9.390625 -2.875 L 9.390625 -8.984375 C 9.390625 -9.210938 9.253906 -9.4375 8.984375 -9.65625 L 8.171875 -10.34375 C 7.921875 -10.570312 7.648438 -10.6875 7.359375 -10.6875 L 3.125 -10.6875 L 3.125 -1.1875 L 7.359375 -1.1875 C 7.648438 -1.1875 7.921875 -1.300781 8.171875 -1.53125 L 8.984375 -2.203125 C 9.253906 -2.429688 9.390625 -2.65625 9.390625 -2.875 Z M 9.390625 -2.875 "/></g></g></g><g fill="#ffffff" fill-opacity="1"><g transform="translate(173.03888, 15.911826)"><g><path d="M 9.296875 -1.1875 L 9.296875 0 L 1.703125 0 L 1.703125 -11.875 L 9.296875 -11.875 L 9.296875 -10.6875 L 3.125 -10.6875 L 3.125 -6.609375 L 8.34375 -6.609375 L 8.34375 -5.421875 L 3.125 -5.421875 L 3.125 -1.1875 Z M 9.296875 -1.1875 "/></g></g></g><g fill="#ffffff" fill-opacity="1"><g transform="translate(183.601084, 15.911826)"><g><path d="M -0.109375 -11.875 L 8.84375 -11.875 L 8.84375 -10.6875 L 5.09375 -10.6875 L 5.09375 0 L 3.65625 0 L 3.65625 -10.6875 L -0.109375 -10.6875 Z M -0.109375 -11.875 "/></g></g></g><g fill="#ffffff" fill-opacity="1"><g transform="translate(192.366204, 15.911826)"><g><path d="M 9.296875 -1.1875 L 9.296875 0 L 1.703125 0 L 1.703125 -11.875 L 9.296875 -11.875 L 9.296875 -10.6875 L 3.125 -10.6875 L 3.125 -6.609375 L 8.34375 -6.609375 L 8.34375 -5.421875 L 3.125 -5.421875 L 3.125 -1.1875 Z M 9.296875 -1.1875 "/></g></g></g><g fill="#ffffff" fill-opacity="1"><g transform="translate(202.928408, 15.911826)"><g><path d="M 10.40625 -9.65625 L 8.984375 -9.65625 L 8.984375 -9.984375 C 8.984375 -10.148438 8.972656 -10.257812 8.953125 -10.3125 C 8.941406 -10.363281 8.882812 -10.425781 8.78125 -10.5 C 8.675781 -10.582031 8.59375 -10.632812 8.53125 -10.65625 C 8.476562 -10.675781 8.351562 -10.6875 8.15625 -10.6875 L 3.953125 -10.6875 C 3.742188 -10.6875 3.609375 -10.675781 3.546875 -10.65625 C 3.492188 -10.632812 3.414062 -10.582031 3.3125 -10.5 C 3.21875 -10.425781 3.160156 -10.363281 3.140625 -10.3125 C 3.128906 -10.257812 3.125 -10.148438 3.125 -9.984375 L 3.125 -1.875 C 3.125 -1.707031 3.128906 -1.597656 3.140625 -1.546875 C 3.160156 -1.492188 3.21875 -1.425781 3.3125 -1.34375 C 3.414062 -1.269531 3.492188 -1.222656 3.546875 -1.203125 C 3.609375 -1.191406 3.742188 -1.1875 3.953125 -1.1875 L 8.15625 -1.1875 C 8.351562 -1.1875 8.476562 -1.191406 8.53125 -1.203125 C 8.59375 -1.222656 8.675781 -1.269531 8.78125 -1.34375 C 8.882812 -1.425781 8.941406 -1.492188 8.953125 -1.546875 C 8.972656 -1.597656 8.984375 -1.707031 8.984375 -1.875 L 8.984375 -2.203125 L 10.40625 -2.203125 L 10.40625 -1.53125 C 10.40625 -1.1875 10.269531 -0.898438 10 -0.671875 L 9.59375 -0.34375 C 9.320312 -0.113281 9.050781 0 8.78125 0 L 3.328125 0 C 3.054688 0 2.785156 -0.113281 2.515625 -0.34375 L 2.109375 -0.671875 C 1.835938 -0.898438 1.703125 -1.1875 1.703125 -1.53125 L 1.703125 -10.34375 C 1.703125 -10.675781 1.835938 -10.957031 2.109375 -11.1875 L 2.515625 -11.53125 C 2.785156 -11.757812 3.054688 -11.875 3.328125 -11.875 L 8.78125 -11.875 C 9.050781 -11.875 9.320312 -11.757812 9.59375 -11.53125 L 10 -11.1875 C 10.269531 -10.957031 10.40625 -10.675781 10.40625 -10.34375 Z M 10.40625 -9.65625 "/></g></g></g><g fill="#ffffff" fill-opacity="1"><g transform="translate(214.168764, 15.911826)"><g><path d="M -0.109375 -11.875 L 8.84375 -11.875 L 8.84375 -10.6875 L 5.09375 -10.6875 L 5.09375 0 L 3.65625 0 L 3.65625 -10.6875 L -0.109375 -10.6875 Z M -0.109375 -11.875 "/></g></g></g><g fill="#ffffff" fill-opacity="1"><g transform="translate(222.933872, 15.911826)"><g><path d="M 1.703125 -11.875 L 3.125 -11.875 L 3.125 0 L 1.703125 0 Z M 1.703125 -11.875 "/></g></g></g><g fill="#ffffff" fill-opacity="1"><g transform="translate(227.748721, 15.911826)"><g><path d="M 3.328125 -11.875 L 9.53125 -11.875 C 9.800781 -11.875 10.070312 -11.757812 10.34375 -11.53125 L 10.75 -11.1875 C 11.019531 -10.957031 11.15625 -10.675781 11.15625 -10.34375 L 11.15625 -1.53125 C 11.15625 -1.1875 11.019531 -0.898438 10.75 -0.671875 L 10.34375 -0.34375 C 10.070312 -0.113281 9.800781 0 9.53125 0 L 3.328125 0 C 3.054688 0 2.785156 -0.113281 2.515625 -0.34375 L 2.109375 -0.671875 C 1.835938 -0.898438 1.703125 -1.1875 1.703125 -1.53125 L 1.703125 -10.34375 C 1.703125 -10.675781 1.835938 -10.957031 2.109375 -11.1875 L 2.515625 -11.53125 C 2.785156 -11.757812 3.054688 -11.875 3.328125 -11.875 Z M 9.734375 -1.875 L 9.734375 -9.984375 C 9.734375 -10.148438 9.722656 -10.257812 9.703125 -10.3125 C 9.691406 -10.363281 9.632812 -10.425781 9.53125 -10.5 C 9.425781 -10.582031 9.34375 -10.632812 9.28125 -10.65625 C 9.226562 -10.675781 9.101562 -10.6875 8.90625 -10.6875 L 3.953125 -10.6875 C 3.742188 -10.6875 3.609375 -10.675781 3.546875 -10.65625 C 3.492188 -10.632812 3.414062 -10.582031 3.3125 -10.5 C 3.21875 -10.425781 3.160156 -10.363281 3.140625 -10.3125 C 3.128906 -10.257812 3.125 -10.148438 3.125 -9.984375 L 3.125 -1.875 C 3.125 -1.707031 3.128906 -1.597656 3.140625 -1.546875 C 3.160156 -1.492188 3.21875 -1.425781 3.3125 -1.34375 C 3.414062 -1.269531 3.492188 -1.222656 3.546875 -1.203125 C 3.609375 -1.191406 3.742188 -1.1875 3.953125 -1.1875 L 8.90625 -1.1875 C 9.101562 -1.1875 9.226562 -1.191406 9.28125 -1.203125 C 9.34375 -1.222656 9.425781 -1.269531 9.53125 -1.34375 C 9.632812 -1.425781 9.691406 -1.492188 9.703125 -1.546875 C 9.722656 -1.597656 9.734375 -1.707031 9.734375 -1.875 Z M 9.734375 -1.875 "/></g></g></g><g fill="#ffffff" fill-opacity="1"><g transform="translate(240.599691, 15.911826)"><g><path d="M 9.328125 -2.203125 L 9.375 -2.21875 C 9.289062 -2.488281 9.25 -2.757812 9.25 -3.03125 L 9.25 -11.875 L 10.6875 -11.875 L 10.6875 0 L 9.25 0 L 3.046875 -9.53125 L 3 -9.515625 C 3.082031 -9.242188 3.125 -8.972656 3.125 -8.703125 L 3.125 0 L 1.703125 0 L 1.703125 -11.875 L 3.125 -11.875 Z M 9.328125 -2.203125 "/></g></g></g></g></g><g transform="matrix(1, 0, 0, 1, 115, 32)"><g clip-path="url(#7e18be0b41)"><g fill="#ffffff" fill-opacity="1"><g transform="translate(0.101549, 22.665785)"><g><path d="M 24.546875 0 L 24.546875 -10.875 L 15.59375 -0.109375 L 6.625 -10.875 L 6.625 0 L 2.0625 0 L 2.0625 -15.96875 L 8.859375 -15.96875 L 15.65625 -7.609375 L 22.859375 -15.96875 L 29.140625 -15.96875 L 29.140625 0 Z M 24.546875 0 "/></g></g><g transform="translate(31.331659, 22.665785)"><g><path d="M 2.078125 0 L 2.078125 -15.96875 L 6.953125 -15.96875 L 6.953125 0 Z M 2.078125 0 "/></g></g><g transform="translate(40.358108, 22.665785)"><g><path d="M 17.984375 -4 L 17.984375 0 L 2.078125 0 L 2.078125 -15.96875 L 6.953125 -15.96875 L 6.953125 -4 Z M 17.984375 -4 "/></g></g><g transform="translate(58.960543, 22.665785)"><g><path d="M 17.984375 -4 L 17.984375 0 L 2.078125 0 L 2.078125 -15.96875 L 6.953125 -15.96875 L 6.953125 -4 Z M 17.984375 -4 "/></g></g><g transform="translate(77.562979, 22.665785)"><g><path d="M 2.078125 0 L 2.078125 -15.96875 L 6.953125 -15.96875 L 6.953125 0 Z M 2.078125 0 "/></g></g><g transform="translate(86.589428, 22.665785)"><g><path d="M 16.953125 -15.96875 C 18.878906 -15.96875 20.25 -15.597656 21.0625 -14.859375 C 21.882812 -14.117188 22.296875 -12.804688 22.296875 -10.921875 C 22.296875 -10.203125 22.253906 -9.585938 22.171875 -9.078125 C 22.097656 -8.566406 21.941406 -8.125 21.703125 -7.75 C 21.460938 -7.375 21.179688 -7.09375 20.859375 -6.90625 C 20.546875 -6.71875 19.878906 -6.457031 18.859375 -6.125 C 19.972656 -5.988281 20.789062 -5.707031 21.3125 -5.28125 C 21.84375 -4.851562 22.109375 -4.113281 22.109375 -3.0625 L 22.109375 0 L 17.171875 0 L 17.171875 -1.53125 C 17.171875 -2.3125 17.101562 -2.929688 16.96875 -3.390625 C 16.832031 -3.859375 16.195312 -4.09375 15.0625 -4.09375 L 6.953125 -4.09375 L 6.953125 0 L 2.078125 0 L 2.078125 -15.96875 Z M 14.921875 -7.984375 C 16.023438 -7.984375 16.710938 -8.117188 16.984375 -8.390625 C 17.253906 -8.660156 17.390625 -9.265625 17.390625 -10.203125 C 17.390625 -10.734375 17.335938 -11.125 17.234375 -11.375 C 17.128906 -11.632812 16.910156 -11.8125 16.578125 -11.90625 C 16.253906 -12 15.988281 -12.050781 15.78125 -12.0625 C 15.570312 -12.082031 15.328125 -12.09375 15.046875 -12.09375 L 6.953125 -12.09375 L 6.953125 -7.984375 Z M 14.921875 -7.984375 "/></g></g><g transform="translate(110.804163, 22.665785)"><g><path d="M 6.21875 0 L 0.8125 0 L 9.71875 -15.96875 L 16.296875 -15.96875 L 25 0 L 19.640625 0 L 18.125 -2.90625 L 7.8125 -2.90625 Z M 9.515625 -6.203125 L 16.359375 -6.203125 L 12.9375 -12.53125 Z M 9.515625 -6.203125 "/></g></g><g transform="translate(136.597358, 22.665785)"><g><path d="M 23.46875 -15.96875 L 14.484375 -5.5625 L 14.484375 0 L 9.609375 0 L 9.609375 -5.5625 L 0.484375 -15.96875 L 6.609375 -15.96875 L 12.015625 -9.390625 L 17.390625 -15.96875 Z M 23.46875 -15.96875 "/></g></g></g></g></g></svg>