<svg xmlns="http://www.w3.org/2000/svg" viewBox="0 0 1200 600" preserveAspectRatio="xMidYMid meet">
  <!-- Natural Earth (lowres) land silhouette, simplified for a subtle operational overlay. -->
  <g fill="#30A6FF" fill-opacity="0.055" stroke="#30A6FF" stroke-opacity="0.22" stroke-width="1.5" stroke-linejoin="round" stroke-linecap="round">
    <path d="M 0.69 353.40 L 0.28 355.01 L 0.00 355.18 L 0.00 353.56 L 0.69 353.40 Z M 339.39 272.27 L 336.27 270.01 L 334.81 270.23 L 334.13 271.38 L 331.73 273.03 L 333.32 274.84 L 330.38 275.93 L 329.80 273.94 L 329.37 274.51 L 328.27 274.31 L 327.60 272.97 L 323.93 272.36 L 323.83 273.09 L 321.64 271.84 L 320.96 271.14 L 321.22 269.83 L 317.84 267.95 L 316.75 266.38 L 316.96 267.35 L 316.30 268.14 L 314.46 266.89 L 314.01 266.22 L 314.47 264.15 L 313.53 263.68 L 314.29 263.04 L 307.77 256.97 L 308.14 256.45 L 308.94 256.72 L 308.37 255.67 L 307.36 255.39 L 306.99 256.17 L 305.06 256.12 L 297.97 253.63 L 295.89 253.57 L 292.57 251.54 L 288.80 247.95 L 284.36 246.00 L 278.14 247.82 L 263.90 242.76 L 260.27 240.28 L 255.00 239.03 L 253.61 237.50 L 250.03 235.61 L 248.36 233.51 L 247.56 231.89 L 248.67 231.56 L 248.33 230.61 L 249.10 229.75 L 249.11 228.59 L 246.57 224.09 L 238.66 216.09 L 235.80 214.73 L 235.19 213.92 L 235.69 211.86 L 232.03 209.46 L 231.20 207.13 L 229.40 206.86 L 225.91 203.49 L 222.79 197.38 L 222.84 196.10 L 217.41 194.00 L 216.88 195.36 L 217.75 199.46 L 222.43 204.15 L 222.87 205.30 L 223.46 205.25 L 224.13 207.40 L 227.95 211.12 L 230.97 217.25 L 231.15 219.00 L 232.76 219.11 L 235.30 222.12 L 235.22 222.71 L 233.23 223.92 L 232.35 221.90 L 226.06 217.54 L 225.66 213.29 L 221.78 210.77 L 221.34 211.20 L 218.45 209.53 L 216.48 207.59 L 218.10 207.53 L 219.34 206.28 L 219.46 204.78 L 216.89 202.40 L 214.94 201.48 L 210.93 194.55 L 209.01 189.85 L 206.85 187.93 L 205.30 187.53 L 204.93 186.57 L 197.92 184.64 L 197.52 182.81 L 194.28 179.46 L 191.51 174.83 L 191.63 174.06 L 187.58 170.16 L 187.12 167.44 L 185.34 165.62 L 186.07 162.86 L 185.95 160.00 L 184.89 157.45 L 186.19 154.31 L 187.00 148.26 L 186.40 143.78 L 184.38 139.39 L 184.78 138.73 L 189.60 139.87 L 191.38 143.01 L 192.20 142.13 L 190.53 136.67 L 181.25 131.94 L 175.21 130.56 L 173.36 127.61 L 173.83 125.57 L 169.57 124.15 L 168.98 121.46 L 164.95 119.04 L 164.88 117.32 L 160.11 115.01 L 159.17 112.10 L 154.87 109.40 L 153.07 106.26 L 144.57 105.96 L 140.67 105.00 L 133.77 101.54 L 124.75 99.72 L 120.14 100.00 L 109.62 97.05 L 105.92 97.76 L 106.61 100.07 L 94.28 102.81 L 93.80 100.85 L 95.30 97.58 L 98.84 96.55 L 97.93 95.72 L 93.68 97.58 L 91.41 99.79 L 86.60 102.17 L 89.04 103.78 L 85.89 106.18 L 78.97 108.59 L 78.15 110.07 L 72.94 111.79 L 71.89 113.35 L 67.99 114.78 L 65.70 114.52 L 56.44 117.70 L 50.71 118.65 L 50.19 118.09 L 60.65 113.68 L 64.79 113.31 L 66.43 111.94 L 74.26 108.10 L 74.83 105.57 L 76.53 103.60 L 72.68 104.61 L 71.61 104.04 L 69.80 105.25 L 67.63 103.56 L 66.73 104.76 L 65.48 103.10 L 62.15 104.43 L 60.10 104.43 L 59.82 102.44 L 60.42 101.22 L 58.27 100.03 L 53.94 100.67 L 48.85 98.31 L 48.83 96.42 L 46.26 95.00 L 47.55 93.08 L 50.27 91.22 L 51.46 89.51 L 56.44 89.80 L 59.13 88.19 L 61.55 88.48 L 64.09 87.45 L 63.47 85.92 L 61.61 85.32 L 64.07 84.04 L 58.49 84.80 L 57.47 85.54 L 54.85 84.80 L 50.13 85.18 L 45.25 84.38 L 43.85 83.04 L 39.63 81.10 L 51.75 78.08 L 54.49 78.08 L 54.04 79.74 L 61.07 79.61 L 58.37 77.55 L 54.27 76.28 L 48.70 73.19 L 44.12 72.14 L 45.98 70.39 L 51.90 70.28 L 56.10 68.76 L 56.90 67.14 L 60.30 65.56 L 69.87 63.69 L 72.93 63.92 L 78.06 62.14 L 83.11 62.84 L 85.52 64.35 L 87.00 63.70 L 92.63 63.90 L 92.43 64.67 L 97.53 65.23 L 100.93 64.90 L 116.93 66.70 L 121.37 66.16 L 144.99 70.34 L 151.95 67.91 L 156.90 68.32 L 167.35 66.02 L 169.64 67.40 L 172.13 66.62 L 172.87 65.05 L 175.18 65.41 L 180.81 68.40 L 185.25 66.14 L 185.70 68.67 L 189.80 68.12 L 191.06 67.15 L 195.09 67.34 L 207.99 69.96 L 215.84 70.31 L 220.34 72.00 L 215.65 73.66 L 221.68 74.37 L 233.51 73.40 L 237.07 75.40 L 240.69 73.71 L 237.29 72.29 L 239.44 71.15 L 246.17 70.67 L 252.21 73.27 L 255.93 73.01 L 261.82 74.51 L 271.86 74.06 L 271.47 71.99 L 274.44 71.40 L 279.60 72.54 L 279.58 75.69 L 281.70 73.03 L 284.38 73.12 L 285.89 69.77 L 278.43 66.37 L 278.70 62.68 L 282.64 60.26 L 287.03 60.80 L 290.41 62.27 L 294.93 66.03 L 291.98 67.67 L 298.18 68.34 L 298.16 71.75 L 302.62 69.14 L 306.60 71.28 L 305.61 73.76 L 308.83 76.00 L 312.31 73.60 L 314.74 70.72 L 314.93 67.06 L 324.59 67.81 L 329.07 69.46 L 329.27 71.11 L 326.79 72.89 L 329.14 74.68 L 328.71 76.30 L 322.18 78.63 L 317.55 79.14 L 314.10 78.14 L 308.92 84.08 L 305.06 86.34 L 300.29 86.56 L 297.65 87.97 L 297.43 90.13 L 293.56 90.55 L 289.48 93.25 L 285.86 97.00 L 284.57 99.63 L 284.38 103.50 L 289.28 104.06 L 292.34 109.71 L 297.01 109.05 L 303.20 110.49 L 308.92 113.34 L 316.63 115.66 L 325.76 116.17 L 325.21 119.06 L 326.25 122.41 L 328.66 126.14 L 333.62 129.31 L 336.19 128.22 L 337.99 124.79 L 336.25 119.53 L 333.90 117.77 L 339.24 116.21 L 343.01 113.88 L 344.86 111.55 L 344.59 109.32 L 342.33 106.49 L 338.28 103.98 L 342.21 100.49 L 340.76 97.47 L 339.64 92.27 L 341.96 91.50 L 351.11 92.73 L 353.87 91.85 L 361.08 94.92 L 362.09 96.21 L 368.03 96.46 L 367.93 99.26 L 369.04 103.48 L 372.08 104.00 L 374.50 105.96 L 379.33 104.11 L 382.52 100.43 L 384.72 98.88 L 395.34 110.11 L 394.00 112.20 L 401.43 115.99 L 406.75 116.85 L 408.89 117.91 L 410.21 120.73 L 412.81 121.18 L 414.15 122.43 L 414.39 126.18 L 409.58 128.60 L 404.08 129.79 L 399.89 132.52 L 394.25 133.07 L 387.12 132.36 L 378.67 132.57 L 375.88 134.96 L 371.63 136.44 L 362.98 143.93 L 365.82 143.38 L 371.17 139.00 L 378.16 136.22 L 383.15 135.89 L 386.10 137.53 L 382.95 139.76 L 385.09 145.87 L 389.42 147.54 L 394.93 147.05 L 398.27 143.31 L 398.50 145.72 L 400.66 146.93 L 396.53 149.12 L 385.84 152.45 L 382.12 154.85 L 379.59 154.60 L 379.46 151.78 L 385.25 149.03 L 376.21 149.54 L 376.78 150.63 L 366.28 154.39 L 364.52 156.37 L 363.92 158.88 L 365.02 160.65 L 366.40 160.73 L 366.05 159.52 L 367.05 160.26 L 366.78 161.21 L 357.08 162.60 L 354.30 163.56 L 359.20 162.94 L 360.18 163.57 L 355.52 164.57 L 353.39 164.57 L 353.49 164.16 L 352.48 165.09 L 353.46 165.24 L 352.74 167.64 L 350.31 170.20 L 350.07 169.35 L 348.24 168.34 L 349.76 170.73 L 349.81 171.99 L 346.87 175.94 L 347.59 173.54 L 345.89 172.27 L 345.50 169.50 L 344.86 170.94 L 345.57 173.06 L 343.37 172.53 L 345.66 173.61 L 345.80 176.78 L 346.76 177.01 L 347.58 181.50 L 345.46 183.97 L 342.01 184.96 L 339.82 186.92 L 338.15 187.13 L 336.46 188.35 L 335.99 189.47 L 332.33 191.64 L 328.88 195.20 L 328.37 197.57 L 328.95 199.88 L 331.55 205.09 L 333.14 210.40 L 332.89 213.94 L 332.06 215.98 L 331.07 216.40 L 329.43 216.00 L 328.90 214.53 L 327.63 213.77 L 323.82 207.05 L 324.50 204.83 L 320.97 200.21 L 319.67 199.70 L 316.30 201.21 L 312.00 198.67 L 305.27 198.72 L 301.35 199.47 L 302.61 202.36 L 301.97 202.80 L 300.74 202.31 L 299.48 202.94 L 297.07 202.84 L 294.58 201.08 L 291.67 201.49 L 289.25 200.72 L 287.17 200.95 L 284.37 201.73 L 281.33 204.20 L 278.02 205.64 L 275.43 208.73 L 275.57 212.63 L 276.20 213.77 L 274.90 213.87 L 276.20 213.77 L 274.32 219.09 L 273.76 225.19 L 276.04 231.22 L 280.33 237.24 L 283.87 238.12 L 285.25 239.52 L 295.31 237.08 L 297.43 235.72 L 299.07 230.00 L 304.85 228.35 L 309.83 228.19 L 310.63 228.89 L 310.51 230.50 L 308.72 232.48 L 307.93 234.51 L 308.54 235.09 L 307.21 239.13 L 305.67 238.33 L 306.31 238.84 L 305.48 244.90 L 303.56 247.04 L 306.26 247.70 L 306.99 247.12 L 310.32 247.48 L 313.33 246.65 L 316.72 246.68 L 321.97 249.10 L 322.84 250.01 L 322.39 251.08 L 322.73 252.30 L 321.60 254.77 L 321.76 258.60 L 321.25 258.93 L 320.64 262.99 L 321.99 265.35 L 326.04 269.31 L 325.97 270.01 L 327.62 269.89 L 328.54 270.71 L 330.18 270.47 L 334.76 267.96 L 338.33 268.60 L 342.16 271.10 L 343.88 271.20 L 346.38 268.88 L 347.75 268.52 L 348.40 264.60 L 350.31 263.06 L 352.41 262.99 L 352.68 262.30 L 355.28 262.58 L 360.82 258.54 L 362.88 259.62 L 362.13 261.53 L 360.18 261.92 L 361.26 263.44 L 361.22 265.18 L 359.75 267.11 L 361.01 269.76 L 362.45 269.54 L 363.20 267.13 L 362.17 265.96 L 362.00 263.44 L 366.15 262.08 L 365.69 260.51 L 366.86 259.46 L 368.05 261.80 L 370.39 261.86 L 372.56 263.71 L 372.69 264.82 L 379.24 264.50 L 381.15 266.00 L 383.70 266.41 L 385.57 265.37 L 385.61 264.53 L 393.73 264.28 L 390.90 265.27 L 392.04 266.84 L 394.70 267.09 L 397.23 268.73 L 397.76 271.40 L 399.50 271.32 L 402.99 273.34 L 405.06 275.51 L 405.15 277.22 L 406.41 277.30 L 409.51 280.09 L 413.50 280.76 L 413.86 280.16 L 416.56 279.92 L 420.14 280.81 L 423.73 281.97 L 427.26 284.78 L 427.81 286.15 L 428.94 285.99 L 431.64 293.66 L 433.42 294.21 L 433.51 296.51 L 431.00 299.26 L 432.04 300.26 L 437.93 300.78 L 438.05 304.13 L 440.58 301.94 L 450.31 305.17 L 451.94 307.13 L 451.39 308.97 L 455.27 307.94 L 461.76 309.71 L 466.74 309.58 L 471.67 312.34 L 475.92 316.07 L 478.49 317.03 L 481.34 317.17 L 482.55 318.22 L 484.23 324.48 L 482.91 329.99 L 476.51 336.80 L 471.92 343.46 L 471.09 343.53 L 470.16 345.98 L 470.39 352.22 L 469.11 359.56 L 468.05 360.87 L 467.46 365.33 L 464.08 369.68 L 463.52 373.12 L 460.82 374.57 L 460.04 376.57 L 456.42 376.56 L 451.17 377.84 L 448.83 379.32 L 445.09 380.30 L 441.17 382.95 L 438.35 386.26 L 437.86 388.75 L 438.42 390.59 L 437.04 395.58 L 434.71 397.41 L 431.01 403.28 L 425.81 407.48 L 424.29 410.66 L 420.65 414.66 L 416.88 416.51 L 414.42 415.84 L 412.62 416.20 L 409.53 414.77 L 407.27 414.88 L 405.24 413.03 L 405.02 414.77 L 409.25 417.63 L 408.79 419.92 L 410.88 421.38 L 410.71 423.01 L 407.50 427.28 L 402.56 429.07 L 395.88 429.76 L 392.21 429.43 L 392.91 431.41 L 392.23 433.91 L 392.85 435.59 L 390.85 436.76 L 387.43 437.22 L 384.23 436.01 L 382.94 436.88 L 383.40 440.19 L 385.66 441.20 L 387.48 440.15 L 388.47 441.88 L 385.40 442.91 L 382.73 444.98 L 381.45 450.12 L 378.30 450.13 L 375.69 451.84 L 374.73 454.34 L 378.01 456.78 L 381.20 457.45 L 380.05 460.44 L 376.11 462.32 L 373.95 466.23 L 370.90 467.55 L 369.54 469.11 L 370.61 472.57 L 372.83 474.50 L 368.46 474.31 L 363.85 476.33 L 363.31 479.44 L 358.14 478.44 L 350.18 474.21 L 349.13 472.10 L 350.08 470.14 L 348.40 467.93 L 347.97 462.25 L 349.39 459.04 L 352.91 456.46 L 347.85 455.49 L 351.03 452.55 L 352.16 447.01 L 355.87 448.18 L 357.61 441.28 L 355.37 440.39 L 354.33 444.55 L 352.23 444.08 L 354.41 433.14 L 355.94 430.86 L 354.71 423.85 L 356.11 423.75 L 361.87 408.06 L 361.10 403.07 L 362.10 400.32 L 361.70 396.20 L 363.65 392.13 L 366.36 371.31 L 366.12 365.85 L 365.42 361.16 L 362.08 359.25 L 361.79 357.88 L 355.18 354.53 L 346.64 348.83 L 345.26 346.08 L 345.80 345.12 L 334.13 323.98 L 329.17 320.46 L 330.25 318.97 L 328.63 315.79 L 329.67 313.45 L 332.32 311.35 L 334.10 308.86 L 333.38 307.40 L 332.10 308.95 L 330.11 307.49 L 330.78 306.55 L 330.22 303.52 L 331.39 303.02 L 333.26 298.80 L 333.03 297.44 L 337.15 295.40 L 336.70 294.36 L 337.94 294.11 L 337.79 292.44 L 338.57 291.23 L 340.23 291.01 L 342.91 287.17 L 341.68 286.37 L 342.31 284.44 L 341.56 281.39 L 342.27 280.52 L 341.74 277.70 L 339.28 274.96 L 338.57 273.16 L 339.39 272.27 Z M 80.21 236.47 L 79.76 234.32 L 80.46 232.44 L 82.58 233.36 L 83.98 234.97 L 81.04 236.95 L 80.21 236.47 Z M 80.01 230.79 L 78.62 231.43 L 77.63 230.24 L 77.96 229.96 L 80.01 230.79 Z M 77.47 229.41 L 77.37 229.77 L 75.58 229.67 L 75.83 229.27 L 77.47 229.41 Z M 73.25 227.61 L 74.49 228.93 L 74.31 229.12 L 72.91 228.96 L 72.36 228.07 L 73.25 227.61 Z M 344.92 229.31 L 348.01 229.94 L 347.76 230.88 L 350.22 231.02 L 352.74 232.38 L 352.34 233.17 L 350.13 233.59 L 340.82 233.82 L 343.05 231.96 L 341.69 231.09 L 339.54 230.87 L 338.39 229.90 L 337.60 228.01 L 335.72 228.14 L 326.10 225.38 L 327.35 224.54 L 324.08 224.37 L 321.69 226.10 L 320.30 226.15 L 319.83 226.96 L 316.75 227.01 L 318.51 225.98 L 319.23 224.78 L 322.44 223.39 L 325.77 222.70 L 331.27 222.98 L 334.40 224.12 L 335.73 225.34 L 338.84 224.96 L 344.92 229.31 Z M 68.45 227.06 L 67.33 226.45 L 68.78 225.95 L 68.45 227.06 Z M 336.97 211.93 L 336.73 210.70 L 340.50 210.53 L 340.60 211.40 L 336.97 211.93 Z M 172.14 130.76 L 180.82 132.35 L 183.60 135.08 L 186.92 136.46 L 188.30 138.30 L 186.62 138.76 L 181.15 137.25 L 180.15 136.07 L 177.17 134.90 L 176.57 133.95 L 173.14 133.35 L 171.85 131.54 L 172.14 130.76 Z M 155.87 120.50 L 156.07 119.43 L 160.83 119.60 L 159.84 123.38 L 162.74 126.07 L 161.41 126.06 L 159.40 124.53 L 156.48 121.96 L 155.87 120.50 Z M 89.24 106.77 L 91.45 107.00 L 92.86 108.03 L 86.65 110.88 L 84.95 110.02 L 84.43 108.46 L 89.24 106.77 Z M 48.07 100.30 L 46.02 100.82 L 41.82 99.29 L 45.11 98.72 L 47.75 99.02 L 48.07 100.30 Z M 333.57 92.05 L 335.78 92.80 L 334.47 94.56 L 333.00 94.27 L 332.13 93.28 L 333.57 92.05 Z M 327.08 90.32 L 327.01 90.96 L 323.10 92.80 L 320.75 92.73 L 320.02 91.82 L 322.50 90.29 L 327.08 90.32 Z M 28.16 88.94 L 27.36 88.65 L 27.56 87.39 L 37.70 89.01 L 34.90 90.08 L 31.10 88.75 L 28.16 88.94 Z M 322.97 86.33 L 314.92 89.83 L 313.78 87.88 L 309.26 88.20 L 312.16 86.55 L 313.72 80.87 L 316.13 81.14 L 316.75 82.61 L 318.45 82.09 L 327.86 85.15 L 328.16 86.73 L 330.61 86.48 L 332.99 87.58 L 330.03 88.63 L 324.84 87.83 L 322.97 86.33 Z M 24.82 85.13 L 23.48 85.82 L 20.36 85.72 L 13.39 83.59 L 12.64 82.14 L 9.26 81.60 L 5.47 82.03 L 3.66 80.87 L 4.38 79.63 L 0.39 80.42 L 1.89 81.99 L 0.00 83.40 L 0.00 70.12 L 16.91 75.98 L 16.62 78.05 L 18.87 78.88 L 18.09 76.46 L 27.14 76.96 L 33.67 80.08 L 30.36 81.53 L 24.90 81.87 L 24.82 85.13 Z M 276.14 67.13 L 281.17 69.64 L 279.10 70.81 L 274.61 69.80 L 271.89 70.16 L 267.34 68.67 L 272.61 66.19 L 276.14 67.13 Z M 259.69 69.60 L 258.57 70.82 L 246.80 69.40 L 236.67 70.73 L 222.29 71.55 L 220.48 69.98 L 215.93 69.07 L 212.97 69.44 L 208.87 66.80 L 225.28 65.45 L 218.83 64.67 L 206.98 64.86 L 205.23 63.64 L 212.96 62.30 L 207.81 62.35 L 201.99 61.47 L 207.11 57.65 L 216.04 55.62 L 219.44 56.26 L 217.78 57.82 L 225.20 56.82 L 229.83 58.50 L 233.60 56.80 L 236.64 57.89 L 239.37 61.16 L 241.05 59.78 L 238.68 56.37 L 241.61 55.88 L 248.66 57.76 L 251.78 63.36 L 263.40 66.59 L 263.04 68.05 L 257.56 68.32 L 259.69 69.60 Z M 0.00 63.89 L 0.43 61.47 L 8.07 62.44 L 4.35 63.69 L 0.00 63.89 Z M 277.60 61.13 L 272.13 62.42 L 268.92 62.15 L 266.62 60.87 L 258.33 58.30 L 258.40 57.23 L 265.21 57.65 L 261.53 55.47 L 265.48 53.85 L 269.45 54.56 L 275.40 54.13 L 276.27 55.10 L 273.15 56.70 L 278.20 58.13 L 277.60 61.13 Z M 198.47 62.05 L 189.69 63.66 L 187.93 62.20 L 180.24 60.44 L 186.87 54.40 L 183.61 52.36 L 194.87 51.84 L 208.15 52.71 L 214.96 55.08 L 202.60 58.27 L 198.47 60.60 L 198.47 62.05 Z M 281.68 53.79 L 284.99 52.88 L 298.30 53.81 L 293.32 56.78 L 289.35 57.43 L 285.77 59.92 L 281.97 59.79 L 279.89 56.87 L 279.94 55.21 L 281.68 53.79 Z M 243.53 55.13 L 249.13 54.53 L 251.67 55.27 L 248.73 57.47 L 243.53 55.13 Z M 338.69 57.08 L 334.08 57.32 L 330.41 55.56 L 330.55 54.36 L 339.79 54.49 L 345.53 56.32 L 345.83 57.25 L 338.69 57.08 Z M 286.14 51.36 L 281.30 51.11 L 277.26 50.24 L 279.04 48.74 L 283.83 47.84 L 287.96 50.07 L 286.14 51.36 Z M 220.43 50.93 L 227.35 49.46 L 212.29 49.86 L 207.63 49.26 L 212.18 46.00 L 215.32 45.07 L 224.70 46.20 L 230.62 48.17 L 236.44 48.42 L 231.68 45.23 L 234.73 44.02 L 238.17 44.41 L 240.60 47.18 L 247.06 46.77 L 247.65 48.40 L 245.62 49.98 L 234.33 50.50 L 225.92 51.94 L 220.85 52.02 L 220.43 50.93 Z M 277.52 42.80 L 284.39 43.01 L 288.09 44.08 L 294.65 44.07 L 297.53 45.17 L 296.77 46.42 L 302.71 47.97 L 312.07 48.39 L 317.37 47.67 L 329.57 47.62 L 333.14 48.88 L 333.89 50.26 L 331.81 51.14 L 326.84 51.86 L 322.57 51.45 L 306.17 52.03 L 291.93 50.54 L 290.37 47.06 L 287.02 45.60 L 280.13 45.20 L 276.26 44.16 L 277.52 42.80 Z M 258.11 45.54 L 261.70 45.65 L 266.72 44.51 L 271.41 44.70 L 271.67 44.27 L 274.21 45.81 L 274.32 47.52 L 272.80 50.00 L 267.30 50.34 L 263.72 49.81 L 263.79 47.86 L 258.33 48.12 L 258.11 45.54 Z M 206.53 45.06 L 195.00 47.00 L 190.48 46.28 L 202.99 41.63 L 212.67 41.18 L 212.21 43.74 L 209.65 44.90 L 206.53 45.06 Z M 279.43 41.48 L 278.55 40.55 L 285.26 40.60 L 287.60 41.22 L 285.68 41.70 L 279.43 41.48 Z M 232.71 41.01 L 226.50 41.97 L 221.55 40.89 L 224.25 39.83 L 229.12 39.49 L 233.82 40.01 L 232.71 41.01 Z M 277.49 37.45 L 281.47 38.61 L 280.57 39.81 L 275.63 40.50 L 272.92 39.72 L 271.49 38.47 L 271.23 37.09 L 277.49 37.45 Z M 252.63 37.74 L 248.60 36.94 L 248.36 35.66 L 263.92 37.33 L 267.76 40.31 L 256.83 38.86 L 249.41 38.73 L 252.63 37.74 Z M 230.40 38.64 L 224.86 38.64 L 224.91 38.16 L 228.33 37.17 L 234.46 37.99 L 230.40 38.64 Z M 309.93 34.47 L 313.95 35.54 L 309.37 36.54 L 303.22 39.04 L 297.32 39.28 L 290.41 38.86 L 286.83 37.50 L 286.88 36.29 L 289.52 35.40 L 283.42 35.43 L 279.75 34.32 L 277.63 32.81 L 282.26 30.31 L 285.67 30.08 L 284.22 29.31 L 291.97 29.14 L 296.22 30.92 L 307.30 32.27 L 309.93 34.47 Z M 355.72 479.86 L 351.12 476.12 L 362.97 480.25 L 364.69 478.72 L 365.78 476.44 L 368.85 475.06 L 371.22 475.45 L 374.17 479.50 L 378.50 481.50 L 383.17 482.33 L 381.67 484.00 L 378.50 484.17 L 376.80 482.99 L 375.70 484.34 L 372.84 485.37 L 371.20 485.27 L 363.31 483.51 L 355.72 479.86 Z M 397.67 474.33 L 396.00 472.83 L 400.00 470.83 L 402.83 471.67 L 404.83 470.33 L 407.50 471.83 L 406.50 473.00 L 402.00 474.00 L 400.50 472.83 L 397.67 474.33 Z M 556.84 274.00 L 555.84 270.32 L 553.09 267.05 L 551.40 265.95 L 550.53 263.74 L 547.79 261.81 L 546.38 261.58 L 544.62 259.43 L 543.86 256.16 L 544.29 254.68 L 542.91 252.09 L 541.25 250.90 L 542.72 250.27 L 545.12 246.22 L 544.83 244.42 L 545.76 242.78 L 546.18 239.64 L 545.41 234.69 L 545.74 233.02 L 543.12 230.00 L 543.42 227.05 L 545.79 224.40 L 545.58 223.27 L 546.72 220.92 L 549.70 218.27 L 550.66 214.55 L 551.87 212.49 L 554.09 211.27 L 556.20 207.87 L 557.94 206.54 L 561.04 206.17 L 568.12 200.22 L 567.28 196.07 L 569.00 191.45 L 571.14 189.20 L 576.96 186.30 L 580.23 180.80 L 582.69 180.82 L 584.70 182.23 L 587.87 182.00 L 592.77 182.77 L 595.97 180.95 L 599.58 180.37 L 604.89 177.98 L 616.05 177.12 L 617.73 177.61 L 620.87 176.30 L 628.07 176.85 L 631.70 175.50 L 634.03 175.90 L 633.94 177.59 L 636.76 176.36 L 637.00 177.00 L 635.33 178.63 L 635.31 180.18 L 636.47 181.00 L 636.03 183.89 L 633.83 185.56 L 634.47 187.38 L 636.19 187.44 L 637.03 189.02 L 638.30 189.54 L 642.21 190.69 L 646.40 190.96 L 650.82 192.45 L 652.38 195.41 L 660.07 197.45 L 663.62 199.11 L 666.84 196.71 L 666.07 194.16 L 667.11 192.54 L 669.52 190.98 L 671.81 190.52 L 676.32 191.20 L 677.46 192.70 L 683.07 193.67 L 683.88 194.77 L 688.32 194.71 L 696.38 197.10 L 700.32 195.09 L 703.26 194.81 L 705.63 195.23 L 706.53 196.89 L 707.31 195.80 L 712.58 196.78 L 715.19 194.84 L 716.52 190.58 L 719.99 184.52 L 719.68 181.97 L 720.50 180.59 L 719.27 179.08 L 720.54 177.83 L 718.50 178.12 L 715.72 177.35 L 713.42 179.27 L 708.36 179.64 L 705.67 177.85 L 702.07 177.74 L 701.30 179.12 L 699.00 179.52 L 695.78 177.74 L 692.14 177.80 L 690.16 174.49 L 687.73 172.64 L 689.35 170.05 L 687.24 168.45 L 690.93 165.27 L 696.07 165.13 L 697.47 162.60 L 703.82 163.04 L 707.83 160.88 L 711.71 159.94 L 717.23 159.87 L 727.83 163.50 L 734.58 163.29 L 738.51 161.55 L 739.01 160.12 L 738.18 157.85 L 722.25 149.18 L 724.68 148.65 L 727.44 145.86 L 725.58 144.54 L 730.49 143.18 L 730.40 142.46 L 724.75 143.26 L 722.53 144.34 L 719.41 144.51 L 716.54 145.76 L 716.74 147.83 L 718.37 148.63 L 721.77 148.43 L 721.12 149.62 L 717.47 150.20 L 712.94 152.13 L 711.09 151.45 L 711.82 149.88 L 708.18 148.91 L 711.96 147.16 L 711.00 146.40 L 705.81 145.56 L 705.58 144.31 L 702.50 144.72 L 698.68 149.02 L 698.76 149.88 L 697.14 150.60 L 696.13 150.29 L 695.19 154.31 L 693.46 155.69 L 692.25 158.07 L 693.72 161.26 L 696.63 162.33 L 696.02 163.15 L 692.06 163.33 L 687.86 166.16 L 686.86 163.92 L 683.09 163.51 L 679.05 164.38 L 681.36 166.25 L 679.67 166.79 L 677.81 166.80 L 676.05 165.08 L 675.42 165.81 L 676.17 167.80 L 677.83 169.37 L 676.58 170.10 L 680.08 172.60 L 680.13 174.48 L 677.05 173.60 L 678.03 175.30 L 675.92 175.65 L 677.18 178.59 L 674.97 178.63 L 672.23 177.18 L 670.40 172.30 L 667.39 168.87 L 666.53 166.95 L 664.69 165.83 L 664.40 164.24 L 665.13 160.93 L 662.94 159.06 L 653.38 154.98 L 650.58 152.52 L 651.25 152.27 L 649.73 150.87 L 649.67 149.75 L 647.53 149.22 L 646.51 150.66 L 645.52 149.54 L 645.60 148.39 L 646.46 148.03 L 643.81 147.54 L 641.10 148.73 L 640.87 151.33 L 641.96 153.03 L 645.09 154.71 L 646.77 157.46 L 650.48 160.15 L 653.09 160.13 L 653.90 160.87 L 652.96 161.53 L 658.40 163.74 L 661.60 166.10 L 660.98 167.30 L 659.13 165.74 L 656.23 165.19 L 654.83 167.35 L 657.24 168.58 L 656.84 170.32 L 655.45 170.52 L 653.67 173.38 L 652.28 173.64 L 652.97 170.83 L 653.70 170.12 L 651.38 166.51 L 645.43 162.71 L 642.96 162.49 L 640.36 160.98 L 635.04 156.90 L 634.00 153.60 L 629.63 152.11 L 621.76 156.24 L 615.19 155.33 L 610.33 156.42 L 610.13 160.36 L 606.97 162.58 L 602.70 163.28 L 599.07 168.97 L 600.37 170.87 L 598.44 172.36 L 597.72 174.53 L 595.21 175.19 L 592.85 177.75 L 585.44 177.74 L 582.08 180.18 L 580.45 179.90 L 578.27 176.86 L 575.15 176.34 L 573.81 177.21 L 572.06 176.74 L 570.34 177.10 L 570.53 172.45 L 569.04 172.14 L 568.24 170.88 L 568.51 168.69 L 569.84 167.48 L 570.77 164.13 L 569.88 160.40 L 570.05 158.02 L 568.69 156.58 L 573.41 154.17 L 585.51 155.32 L 593.66 155.26 L 595.39 153.26 L 596.02 146.62 L 590.12 141.43 L 585.03 140.15 L 584.69 137.72 L 589.01 136.99 L 594.61 137.85 L 593.56 134.08 L 596.70 135.51 L 604.46 132.91 L 605.46 130.18 L 612.77 127.93 L 615.69 123.03 L 620.25 121.63 L 623.02 121.73 L 623.67 121.02 L 626.45 120.84 L 627.07 121.57 L 629.34 119.93 L 628.42 116.79 L 627.07 114.94 L 626.97 111.53 L 628.48 109.63 L 631.41 109.43 L 635.27 107.57 L 635.15 109.28 L 634.17 110.37 L 634.57 111.30 L 636.37 111.80 L 635.56 113.06 L 634.57 112.70 L 632.17 115.10 L 633.13 118.01 L 636.50 118.79 L 636.46 119.97 L 641.73 118.43 L 647.07 120.81 L 658.74 117.16 L 662.07 117.72 L 662.32 118.54 L 665.54 118.58 L 666.29 117.11 L 670.89 116.03 L 670.30 110.72 L 671.94 108.63 L 675.08 107.49 L 677.73 109.98 L 680.40 109.91 L 681.43 105.39 L 680.20 105.81 L 678.09 104.62 L 677.80 102.71 L 686.21 101.30 L 693.27 101.75 L 697.06 99.91 L 693.57 98.32 L 687.52 98.59 L 676.23 100.51 L 674.30 98.69 L 671.07 97.60 L 671.82 94.32 L 670.20 91.31 L 671.79 89.37 L 674.81 87.27 L 684.66 82.96 L 684.31 81.55 L 679.68 79.98 L 673.94 80.92 L 670.71 83.25 L 671.23 85.29 L 659.49 90.84 L 657.07 95.53 L 659.44 97.88 L 662.63 99.73 L 659.56 103.49 L 656.10 104.27 L 654.83 109.86 L 652.93 112.99 L 648.89 112.66 L 647.00 115.31 L 643.14 115.46 L 642.08 112.31 L 636.76 103.81 L 634.52 101.77 L 627.94 105.62 L 623.50 106.40 L 618.89 104.71 L 617.69 101.12 L 616.64 93.43 L 619.71 91.29 L 628.51 88.49 L 635.09 85.05 L 649.20 73.96 L 663.95 67.28 L 671.26 65.82 L 676.75 65.99 L 681.82 63.23 L 687.90 63.38 L 693.89 62.72 L 704.31 65.15 L 700.02 66.05 L 703.67 68.14 L 707.11 66.98 L 712.58 69.00 L 721.71 69.79 L 734.31 73.56 L 736.87 75.14 L 737.09 77.36 L 733.39 79.11 L 727.94 80.00 L 713.06 77.47 L 710.61 77.89 L 716.05 80.33 L 716.48 85.29 L 723.38 87.17 L 723.81 85.55 L 721.80 84.12 L 723.92 82.86 L 731.98 84.93 L 734.79 84.12 L 732.54 81.68 L 740.31 78.41 L 743.39 78.60 L 746.50 79.77 L 748.44 77.48 L 745.66 75.49 L 747.29 73.50 L 744.84 71.43 L 754.17 72.50 L 756.07 74.37 L 751.85 74.78 L 751.87 76.63 L 754.50 77.77 L 759.65 77.05 L 760.46 74.93 L 779.06 70.48 L 781.57 70.64 L 778.29 72.66 L 782.42 73.01 L 784.81 71.87 L 791.06 71.78 L 796.01 70.40 L 799.80 72.41 L 803.59 70.20 L 800.10 68.27 L 801.83 67.17 L 811.68 68.18 L 828.37 73.03 L 830.60 71.28 L 827.21 69.52 L 827.12 68.81 L 823.10 68.48 L 824.20 66.90 L 822.32 63.24 L 828.47 60.22 L 830.65 57.19 L 833.13 56.53 L 841.96 57.41 L 842.65 59.27 L 839.49 61.97 L 841.57 63.03 L 842.64 65.36 L 841.88 69.93 L 845.56 71.97 L 844.13 74.20 L 837.60 78.93 L 841.41 79.42 L 842.74 78.22 L 846.40 77.37 L 847.29 75.72 L 850.17 74.13 L 848.23 72.24 L 849.79 70.04 L 846.14 69.76 L 845.34 67.91 L 848.00 64.56 L 843.67 61.84 L 849.64 59.60 L 848.86 57.23 L 850.53 57.15 L 852.28 59.00 L 850.96 62.21 L 854.53 62.82 L 853.01 60.42 L 858.59 59.11 L 865.51 58.93 L 871.67 60.83 L 868.70 58.06 L 868.37 54.51 L 874.17 53.83 L 889.41 53.54 L 886.70 51.80 L 890.56 49.61 L 894.39 49.52 L 900.87 47.87 L 909.67 47.42 L 910.78 46.51 L 919.53 46.20 L 922.26 46.95 L 929.74 45.18 L 935.87 45.23 L 936.78 43.79 L 939.97 42.37 L 947.84 41.01 L 953.56 42.09 L 949.02 42.91 L 956.57 43.42 L 957.47 45.07 L 960.51 44.26 L 970.26 44.30 L 977.77 45.93 L 980.45 47.17 L 979.62 48.91 L 964.67 52.73 L 973.73 54.04 L 976.73 53.41 L 978.43 55.55 L 979.90 54.68 L 985.23 54.16 L 995.92 54.71 L 996.73 56.27 L 1010.67 56.76 L 1010.86 54.22 L 1023.25 54.78 L 1028.64 56.54 L 1030.17 58.67 L 1028.20 60.07 L 1032.39 62.69 L 1037.63 64.04 L 1040.85 60.55 L 1046.19 62.05 L 1051.87 61.15 L 1058.33 62.17 L 1060.78 61.24 L 1066.23 61.71 L 1063.83 58.61 L 1068.23 57.17 L 1098.33 59.33 L 1101.17 61.31 L 1109.90 63.86 L 1123.36 63.23 L 1129.99 63.78 L 1132.77 65.16 L 1132.36 67.59 L 1136.47 68.54 L 1140.93 67.86 L 1153.13 68.43 L 1159.45 68.06 L 1165.26 71.02 L 1169.39 69.95 L 1166.69 67.82 L 1168.18 66.34 L 1178.81 67.28 L 1185.75 67.08 L 1195.33 68.67 L 1200.00 70.12 L 1200.00 83.40 L 1195.69 84.88 L 1191.37 84.64 L 1194.38 86.41 L 1196.36 89.16 L 1197.90 90.06 L 1198.29 91.44 L 1197.43 92.32 L 1191.21 91.59 L 1178.93 94.49 L 1169.00 98.88 L 1167.77 100.39 L 1163.00 98.09 L 1154.32 100.70 L 1152.80 99.47 L 1149.59 100.89 L 1145.13 100.44 L 1144.06 102.63 L 1140.06 105.86 L 1140.18 107.20 L 1143.97 107.95 L 1143.53 112.80 L 1140.43 112.93 L 1139.00 115.71 L 1140.39 117.15 L 1134.56 118.85 L 1133.41 122.66 L 1128.44 123.47 L 1127.44 126.86 L 1122.63 129.96 L 1121.40 127.67 L 1118.11 115.40 L 1119.71 110.77 L 1122.53 108.78 L 1122.70 107.23 L 1127.88 106.48 L 1139.57 98.86 L 1145.57 96.20 L 1148.25 91.50 L 1144.19 91.78 L 1142.19 94.52 L 1133.74 98.19 L 1131.01 94.09 L 1122.40 95.22 L 1114.06 100.81 L 1116.81 102.85 L 1104.22 104.06 L 1104.46 101.65 L 1099.28 101.15 L 1095.15 102.79 L 1084.96 102.21 L 1073.99 103.20 L 1050.42 117.57 L 1055.67 117.99 L 1057.31 120.08 L 1060.55 120.82 L 1062.68 119.15 L 1066.34 119.37 L 1071.15 123.03 L 1071.26 125.87 L 1068.66 129.20 L 1068.38 133.18 L 1066.87 138.51 L 1061.85 143.33 L 1060.73 145.64 L 1049.56 155.34 L 1045.12 157.30 L 1043.02 157.34 L 1040.93 155.72 L 1036.45 158.16 L 1035.93 159.27 L 1034.67 159.07 L 1033.22 160.20 L 1032.22 161.33 L 1032.35 163.72 L 1028.78 166.03 L 1025.11 167.48 L 1024.62 169.29 L 1027.83 171.29 L 1030.71 175.23 L 1031.53 177.39 L 1031.56 181.23 L 1030.30 183.06 L 1027.29 183.70 L 1024.62 185.08 L 1021.62 185.37 L 1021.25 183.55 L 1021.86 181.05 L 1020.39 177.58 L 1022.87 177.02 L 1020.58 174.17 L 1018.96 173.53 L 1017.58 174.44 L 1017.47 173.81 L 1015.71 172.97 L 1017.41 171.11 L 1017.74 168.16 L 1014.22 166.91 L 1009.56 167.87 L 1007.10 169.43 L 1003.52 170.34 L 1005.29 168.80 L 1004.59 167.50 L 1007.23 165.26 L 1005.47 163.51 L 998.80 167.01 L 996.74 169.16 L 993.48 169.32 L 991.78 170.87 L 993.53 173.13 L 996.26 173.68 L 996.37 175.17 L 999.01 176.15 L 1002.74 173.77 L 1005.70 175.06 L 1007.86 175.15 L 1008.40 176.90 L 1003.68 177.83 L 1002.12 179.63 L 998.88 181.30 L 997.17 183.63 L 1000.76 185.47 L 1002.07 188.74 L 1006.36 194.36 L 1006.31 196.84 L 1004.21 197.75 L 1005.01 199.52 L 1006.97 200.56 L 1005.61 205.91 L 1003.75 206.21 L 995.52 218.18 L 986.30 224.06 L 982.55 224.44 L 980.51 225.92 L 979.36 224.84 L 977.47 226.50 L 972.81 228.17 L 969.28 228.68 L 968.15 232.20 L 966.30 232.39 L 965.43 229.97 L 966.21 228.68 L 961.74 227.62 L 955.72 231.01 L 952.94 234.16 L 952.21 236.47 L 957.87 244.34 L 960.90 246.40 L 962.92 249.08 L 964.45 255.25 L 964.00 261.11 L 957.40 265.45 L 950.53 271.33 L 949.32 269.20 L 950.25 266.94 L 947.78 265.04 L 944.99 264.56 L 941.95 259.38 L 938.96 257.85 L 936.11 257.91 L 936.59 255.29 L 933.66 255.31 L 933.40 258.98 L 930.51 266.79 L 930.74 269.20 L 932.91 269.31 L 934.86 275.23 L 936.72 277.14 L 938.74 277.53 L 943.21 281.59 L 944.60 283.82 L 945.01 290.70 L 946.18 291.62 L 947.43 295.69 L 945.07 295.91 L 937.97 290.80 L 937.58 289.10 L 935.65 286.87 L 935.19 284.11 L 933.99 282.29 L 934.35 279.86 L 933.62 278.45 L 932.30 277.17 L 931.73 275.52 L 928.35 272.06 L 927.80 274.02 L 927.17 272.17 L 928.51 266.89 L 928.19 264.42 L 929.22 261.86 L 928.09 259.89 L 928.37 256.26 L 927.01 254.53 L 925.32 246.33 L 923.88 243.57 L 917.90 247.62 L 913.96 246.54 L 915.11 242.41 L 914.42 239.29 L 911.80 235.45 L 912.21 234.24 L 910.26 233.82 L 907.90 231.10 L 906.12 226.06 L 904.72 224.12 L 901.65 223.98 L 901.96 225.36 L 900.91 227.21 L 899.49 226.54 L 899.01 227.14 L 896.77 226.48 L 896.30 227.70 L 889.92 228.35 L 890.11 230.86 L 888.33 232.83 L 883.53 235.07 L 879.80 238.99 L 873.98 243.28 L 873.97 244.81 L 867.75 247.00 L 866.75 249.55 L 867.62 256.65 L 866.21 259.81 L 866.19 265.48 L 864.47 265.64 L 862.95 268.18 L 863.97 269.28 L 860.93 270.22 L 859.80 272.49 L 858.47 273.45 L 855.31 270.34 L 852.49 262.31 L 849.55 257.53 L 848.15 251.28 L 845.11 246.70 L 842.74 235.97 L 842.10 228.81 L 837.25 230.81 L 834.90 230.41 L 830.55 226.37 L 832.15 225.16 L 831.17 223.86 L 827.26 221.03 L 824.81 220.18 L 823.82 217.79 L 821.24 215.25 L 804.99 216.41 L 791.32 214.20 L 789.90 210.11 L 788.31 209.52 L 782.38 211.73 L 778.31 210.63 L 774.95 208.06 L 771.74 207.11 L 767.05 199.51 L 765.26 200.05 L 763.14 198.94 L 761.89 200.24 L 759.92 200.08 L 762.69 207.70 L 767.17 211.03 L 767.04 213.52 L 769.37 217.48 L 769.15 215.06 L 770.04 213.31 L 770.95 212.95 L 771.96 214.00 L 771.30 217.91 L 771.93 219.18 L 772.52 219.02 L 772.65 219.93 L 775.26 219.41 L 780.03 219.59 L 787.87 212.01 L 788.29 212.30 L 787.54 214.28 L 787.99 216.92 L 789.48 219.19 L 791.34 220.40 L 795.76 221.45 L 798.17 224.47 L 799.36 224.89 L 799.35 225.63 L 794.96 231.90 L 793.45 231.73 L 792.75 232.52 L 792.31 236.85 L 790.78 236.84 L 788.70 238.09 L 787.61 240.41 L 785.54 240.39 L 784.23 241.23 L 784.25 242.57 L 782.64 243.50 L 780.80 243.18 L 774.62 245.39 L 773.89 248.01 L 765.25 250.97 L 762.26 253.32 L 759.80 253.31 L 757.85 254.69 L 752.08 255.70 L 749.97 257.67 L 744.94 257.88 L 744.08 255.93 L 744.17 254.11 L 742.02 249.29 L 742.68 249.13 L 742.75 246.96 L 742.17 244.08 L 737.40 237.76 L 736.46 235.05 L 734.16 232.75 L 732.67 232.20 L 730.46 229.03 L 730.22 224.73 L 728.31 221.04 L 724.95 219.05 L 723.11 214.66 L 717.10 206.46 L 715.44 206.47 L 716.52 202.14 L 716.41 201.66 L 716.08 200.80 L 716.41 201.66 L 713.85 207.26 L 713.07 207.84 L 710.46 205.27 L 708.08 200.50 L 707.73 200.80 L 709.12 204.32 L 713.68 212.86 L 718.97 220.24 L 718.31 220.83 L 718.42 222.99 L 722.89 226.67 L 723.96 229.94 L 723.23 230.54 L 723.72 233.97 L 724.94 237.95 L 728.03 240.01 L 730.89 246.92 L 737.26 251.70 L 744.39 258.70 L 744.29 260.08 L 742.39 260.88 L 744.90 262.41 L 747.06 265.18 L 748.71 265.19 L 755.48 263.94 L 761.26 262.08 L 764.23 261.90 L 770.37 259.92 L 770.15 264.53 L 764.84 277.32 L 759.14 285.94 L 755.22 290.48 L 743.79 299.03 L 738.62 305.61 L 736.28 306.94 L 735.46 308.33 L 734.21 308.58 L 732.02 314.49 L 730.67 315.59 L 729.14 319.70 L 729.33 321.59 L 731.47 322.80 L 730.62 328.29 L 733.17 333.66 L 734.39 334.39 L 734.93 335.88 L 735.33 347.34 L 735.92 348.97 L 733.63 353.67 L 731.51 355.74 L 724.70 358.62 L 715.95 365.95 L 715.67 368.32 L 717.25 370.85 L 717.95 373.80 L 718.54 373.63 L 717.91 378.45 L 718.69 379.02 L 718.20 380.41 L 708.58 385.76 L 708.87 387.16 L 709.72 387.39 L 708.21 394.34 L 707.34 395.84 L 704.42 398.01 L 700.19 403.80 L 694.07 409.24 L 691.55 410.76 L 686.37 412.22 L 685.94 413.15 L 683.91 412.66 L 682.26 413.29 L 678.65 412.65 L 675.25 412.88 L 665.39 416.06 L 663.98 414.88 L 662.85 414.81 L 661.42 413.33 L 661.26 413.79 L 660.83 410.94 L 659.75 408.70 L 660.83 408.10 L 660.74 405.54 L 654.48 395.26 L 652.01 392.74 L 650.70 390.30 L 648.03 379.51 L 647.53 373.70 L 644.51 369.58 L 642.03 363.48 L 639.32 360.23 L 638.80 355.58 L 641.67 345.16 L 645.45 340.13 L 645.62 335.77 L 642.92 330.56 L 644.12 328.54 L 642.43 323.09 L 640.76 320.98 L 641.07 320.33 L 639.72 316.79 L 631.35 307.15 L 629.33 303.70 L 631.64 296.63 L 631.02 296.13 L 632.65 289.76 L 631.35 287.55 L 629.83 286.99 L 628.30 285.01 L 628.33 284.09 L 622.33 285.86 L 619.66 285.79 L 616.78 281.29 L 614.42 279.10 L 608.97 279.14 L 603.53 280.24 L 593.45 284.30 L 590.48 283.35 L 584.50 282.77 L 580.55 283.35 L 574.94 285.54 L 573.42 285.48 L 569.98 283.89 L 556.84 274.00 Z M 767.98 165.81 L 765.23 166.08 L 764.08 169.84 L 762.86 170.62 L 764.00 174.72 L 767.16 175.42 L 769.47 177.09 L 774.21 177.67 L 779.42 176.78 L 779.60 170.16 L 777.00 169.03 L 777.86 166.75 L 775.65 166.55 L 776.38 163.74 L 779.53 164.56 L 782.46 163.50 L 780.03 161.50 L 779.07 159.59 L 776.39 160.44 L 776.05 162.88 L 774.82 159.91 L 775.64 158.52 L 775.00 157.36 L 771.14 156.22 L 769.64 153.23 L 767.80 152.39 L 767.69 151.30 L 770.93 151.62 L 771.06 149.18 L 773.89 148.64 L 776.80 149.14 L 777.40 145.88 L 776.81 143.82 L 773.47 143.98 L 770.64 143.17 L 763.67 145.34 L 762.15 147.31 L 758.92 147.86 L 755.61 151.30 L 758.64 154.47 L 758.31 156.71 L 765.40 164.76 L 766.95 164.91 L 767.98 165.81 Z M 396.32 263.70 L 397.02 263.82 L 396.88 266.30 L 393.50 266.37 L 394.47 265.45 L 394.40 264.13 L 396.32 263.70 Z M 339.27 238.48 L 343.68 238.66 L 345.45 239.46 L 346.00 240.38 L 342.65 241.00 L 338.87 239.25 L 339.27 238.48 Z M 379.06 238.28 L 381.36 239.24 L 380.51 240.08 L 376.05 240.18 L 376.33 238.26 L 379.06 238.28 Z M 370.64 236.74 L 372.27 237.96 L 371.04 239.32 L 369.45 238.59 L 366.82 238.57 L 364.94 239.39 L 364.44 238.58 L 363.33 239.06 L 362.00 241.34 L 361.14 240.81 L 360.97 239.85 L 358.76 239.28 L 355.15 239.27 L 353.59 239.90 L 351.81 238.86 L 352.10 237.78 L 357.68 238.51 L 358.88 237.77 L 357.36 236.33 L 357.39 235.05 L 355.28 234.53 L 356.03 233.61 L 360.96 234.29 L 361.38 233.72 L 363.98 233.73 L 366.83 234.51 L 367.44 235.69 L 369.26 235.62 L 369.15 236.62 L 370.64 236.74 Z M 340.37 216.10 L 341.53 218.87 L 341.55 220.80 L 340.73 220.97 L 339.89 219.05 L 338.64 218.08 L 339.36 215.97 L 340.37 216.10 Z M 342.76 213.74 L 342.15 213.31 L 342.20 211.57 L 340.70 209.87 L 343.33 211.37 L 342.76 213.74 Z M 386.62 143.21 L 387.78 144.83 L 393.29 145.19 L 391.65 146.56 L 390.42 146.77 L 386.19 145.36 L 385.36 144.24 L 386.62 143.21 Z M 421.74 135.84 L 420.71 138.28 L 423.05 137.71 L 424.51 141.55 L 423.10 144.48 L 419.40 143.98 L 420.13 141.25 L 419.20 140.83 L 415.33 143.72 L 413.34 143.60 L 415.70 142.03 L 412.50 141.22 L 402.45 141.32 L 401.94 140.34 L 404.01 139.16 L 402.56 138.26 L 405.36 136.25 L 408.80 130.94 L 410.87 129.04 L 413.76 127.89 L 415.31 128.04 L 410.68 133.96 L 412.86 132.83 L 415.10 133.55 L 413.93 134.71 L 416.88 135.62 L 418.42 134.81 L 421.74 135.84 Z M 390.47 134.31 L 393.88 135.70 L 393.98 136.32 L 388.04 135.33 L 384.94 133.76 L 390.47 134.31 Z M 577.55 116.09 L 581.13 118.15 L 579.34 120.44 L 579.89 122.82 L 577.37 125.80 L 571.46 127.77 L 566.74 127.27 L 569.45 123.78 L 567.70 120.40 L 574.76 116.23 L 577.55 116.09 Z M 583.17 114.05 L 581.38 115.63 L 581.18 112.42 L 579.50 110.72 L 580.71 107.27 L 583.30 104.57 L 589.98 104.55 L 586.42 108.16 L 593.47 107.72 L 592.60 110.43 L 589.60 113.42 L 593.05 113.63 L 596.28 117.92 L 598.57 118.45 L 601.57 123.57 L 605.61 124.20 L 605.20 126.33 L 603.50 127.31 L 604.83 129.04 L 601.83 130.78 L 597.37 130.75 L 591.70 131.67 L 590.15 131.01 L 587.94 132.57 L 584.86 132.19 L 582.52 133.47 L 580.74 132.80 L 585.63 129.30 L 588.62 128.58 L 583.39 128.02 L 582.44 126.70 L 585.93 125.66 L 584.10 123.87 L 584.73 121.68 L 589.69 121.99 L 590.18 120.05 L 587.90 117.95 L 583.85 117.36 L 583.06 116.46 L 584.27 114.97 L 583.17 114.05 Z M 527.41 85.33 L 520.15 83.70 L 526.05 83.05 L 525.91 82.07 L 518.91 81.30 L 521.16 79.12 L 526.22 78.63 L 531.41 80.89 L 536.48 79.08 L 540.67 80.02 L 546.11 78.24 L 551.64 78.48 L 550.87 80.64 L 554.63 82.91 L 550.30 85.45 L 537.81 88.35 L 524.12 86.80 L 527.41 85.33 Z M 349.28 75.19 L 347.11 76.17 L 343.38 76.34 L 342.55 74.71 L 343.96 72.84 L 347.02 72.38 L 349.62 73.30 L 349.28 75.19 Z M 373.62 66.26 L 376.77 69.38 L 370.65 70.93 L 378.50 73.11 L 383.79 73.84 L 388.58 76.91 L 393.83 77.13 L 392.79 79.47 L 386.94 83.34 L 382.84 81.91 L 377.60 78.71 L 373.28 79.12 L 372.86 81.03 L 382.27 85.39 L 384.44 88.69 L 383.29 91.09 L 370.72 87.51 L 378.91 92.40 L 379.45 93.56 L 370.41 92.23 L 363.26 90.30 L 359.22 88.67 L 360.38 87.73 L 350.55 84.40 L 350.60 85.37 L 340.97 85.90 L 338.15 84.76 L 340.34 82.30 L 353.47 81.82 L 352.35 80.63 L 353.52 78.96 L 357.83 75.72 L 355.63 73.10 L 350.52 71.48 L 343.77 70.35 L 345.90 69.51 L 342.38 67.43 L 339.44 67.25 L 336.81 66.11 L 335.03 67.09 L 328.98 67.52 L 304.39 65.30 L 301.62 64.13 L 305.11 62.61 L 300.37 62.59 L 299.32 59.22 L 301.88 56.24 L 305.31 54.87 L 313.91 53.99 L 311.46 56.14 L 314.09 58.22 L 317.17 55.53 L 325.61 54.16 L 331.33 57.61 L 330.84 59.79 L 337.43 58.83 L 340.58 57.50 L 352.57 60.78 L 353.00 62.23 L 359.19 61.48 L 362.67 63.60 L 370.71 64.92 L 373.62 66.26 Z M 511.61 25.67 L 493.67 26.00 L 495.35 26.59 L 507.14 26.23 L 517.19 27.38 L 523.66 26.36 L 526.43 27.55 L 522.77 29.49 L 547.44 26.96 L 557.43 27.60 L 559.30 29.03 L 543.83 32.17 L 533.18 32.74 L 540.90 32.90 L 534.32 37.50 L 534.42 41.20 L 538.42 43.38 L 533.22 43.52 L 527.74 44.57 L 533.89 46.34 L 534.67 49.17 L 531.11 49.48 L 535.42 52.35 L 528.02 52.59 L 531.88 53.94 L 530.79 55.12 L 521.45 55.64 L 525.62 57.90 L 525.67 59.39 L 519.07 58.01 L 517.36 58.90 L 521.86 59.73 L 526.22 61.77 L 527.49 64.45 L 521.55 65.10 L 514.86 61.90 L 516.00 64.16 L 512.12 65.91 L 525.50 66.24 L 507.51 71.77 L 494.08 72.93 L 490.63 74.22 L 485.99 77.73 L 478.82 80.07 L 467.29 81.81 L 464.44 83.87 L 464.39 86.20 L 462.70 88.39 L 457.27 91.06 L 458.61 93.66 L 455.41 99.67 L 450.71 99.88 L 445.79 97.16 L 439.12 97.14 L 435.89 95.31 L 433.67 92.06 L 427.89 87.91 L 426.20 85.74 L 425.74 82.74 L 421.13 79.67 L 422.33 77.21 L 420.10 76.04 L 423.40 72.14 L 428.42 70.90 L 429.73 69.51 L 430.43 66.90 L 421.81 69.05 L 417.72 67.97 L 417.50 65.70 L 418.80 63.93 L 428.70 64.77 L 419.99 61.51 L 416.67 61.98 L 413.88 61.15 L 417.61 58.05 L 408.92 50.97 L 404.68 49.67 L 404.72 48.28 L 395.77 46.33 L 371.65 46.46 L 361.99 43.30 L 377.45 42.08 L 363.19 41.21 L 355.68 39.85 L 356.14 38.56 L 380.96 35.35 L 382.25 34.14 L 373.26 32.94 L 376.16 31.61 L 387.70 29.29 L 392.55 28.93 L 391.16 27.43 L 399.06 26.55 L 419.55 26.00 L 423.19 27.04 L 432.03 25.20 L 451.59 27.80 L 443.66 26.00 L 444.12 24.57 L 455.31 22.58 L 467.01 22.73 L 471.26 21.50 L 483.04 21.18 L 509.67 21.60 L 530.52 24.24 L 524.36 25.53 L 511.61 25.67 Z M 329.67 23.27 L 357.23 22.56 L 380.58 23.24 L 393.83 24.57 L 393.69 25.46 L 374.47 28.33 L 381.73 28.31 L 368.43 31.28 L 362.73 34.00 L 353.73 35.23 L 343.64 35.59 L 348.24 36.01 L 345.93 36.60 L 348.69 38.25 L 340.37 40.33 L 338.79 41.64 L 334.13 42.63 L 334.60 43.39 L 340.30 43.26 L 340.37 44.07 L 331.46 46.07 L 322.75 45.15 L 312.96 45.67 L 301.70 45.09 L 301.28 43.49 L 307.44 42.74 L 305.80 40.33 L 307.83 40.10 L 316.75 41.54 L 312.20 39.40 L 306.79 38.76 L 309.49 37.47 L 315.40 36.68 L 316.35 35.52 L 311.64 34.21 L 310.23 32.50 L 321.97 33.00 L 327.17 31.79 L 308.00 31.61 L 302.11 30.48 L 295.44 28.16 L 294.71 27.02 L 310.10 25.73 L 315.00 24.49 L 319.13 24.67 L 322.73 25.60 L 325.27 23.80 L 329.67 23.27 Z M 641.90 172.91 L 645.80 173.22 L 651.73 172.56 L 650.53 175.19 L 651.03 176.22 L 650.33 177.93 L 641.44 174.62 L 641.90 172.91 Z M 627.20 163.50 L 629.03 163.67 L 630.70 162.63 L 632.70 165.00 L 632.23 169.41 L 630.72 169.20 L 629.36 170.31 L 628.09 169.43 L 627.96 165.41 L 627.20 163.50 Z M 631.87 159.49 L 630.77 162.07 L 629.25 161.39 L 628.48 159.14 L 629.15 157.91 L 631.30 156.63 L 631.87 159.49 Z M 636.81 115.45 L 636.35 114.07 L 641.24 112.96 L 642.30 114.63 L 640.30 117.33 L 636.81 115.45 Z M 657.06 43.97 L 653.04 44.10 L 645.88 42.07 L 648.90 40.88 L 643.90 39.92 L 637.41 37.10 L 634.82 34.49 L 643.90 33.30 L 645.73 34.47 L 650.48 34.42 L 651.74 33.28 L 656.64 33.16 L 671.81 36.81 L 663.42 38.12 L 661.57 40.58 L 658.65 41.21 L 657.06 43.97 Z M 709.82 182.04 L 712.22 182.09 L 715.25 181.09 L 713.00 182.51 L 713.35 183.41 L 709.93 184.76 L 708.30 184.33 L 707.52 182.99 L 709.34 182.85 L 709.82 182.04 Z M 685.90 182.15 L 685.82 182.73 L 687.63 182.33 L 687.22 183.32 L 682.42 183.60 L 682.45 183.05 L 678.38 182.40 L 679.00 180.98 L 680.82 182.11 L 685.90 182.15 Z M 674.97 41.85 L 669.09 41.08 L 671.39 40.22 L 669.37 39.15 L 676.28 38.48 L 677.60 39.73 L 682.41 40.49 L 674.97 41.85 Z M 673.03 32.14 L 676.40 31.14 L 691.36 33.15 L 686.42 34.94 L 676.75 35.33 L 666.92 34.78 L 666.32 33.86 L 661.54 33.80 L 657.89 32.27 L 668.19 31.34 L 673.03 32.14 Z M 829.78 462.08 L 831.93 463.13 L 835.08 463.55 L 835.20 464.18 L 834.27 465.70 L 829.15 465.92 L 829.78 462.08 Z M 765.58 352.37 L 766.21 354.84 L 765.92 356.25 L 765.00 357.02 L 764.79 359.84 L 756.99 383.14 L 751.37 385.34 L 746.80 383.29 L 745.88 381.54 L 744.18 373.52 L 744.78 371.12 L 746.31 370.54 L 746.32 369.43 L 747.91 366.91 L 748.21 364.78 L 746.81 361.10 L 746.54 358.03 L 748.16 354.05 L 754.37 352.60 L 759.02 348.65 L 760.02 346.97 L 759.56 345.55 L 760.98 345.95 L 762.82 343.63 L 762.88 341.63 L 763.98 340.14 L 766.03 342.98 L 767.39 349.20 L 768.26 350.76 L 767.33 353.33 L 766.20 351.38 L 765.58 352.37 Z M 1001.42 332.22 L 1002.59 333.23 L 1002.39 334.13 L 1000.98 334.20 L 996.56 331.86 L 999.67 331.20 L 1001.42 332.22 Z M 994.20 327.87 L 996.26 327.60 L 997.09 329.02 L 989.13 330.11 L 990.28 328.19 L 992.11 328.16 L 993.00 326.99 L 994.20 327.87 Z M 981.88 329.17 L 978.22 327.83 L 971.74 327.67 L 962.31 325.47 L 960.93 325.89 L 954.85 324.52 L 954.27 323.08 L 951.22 322.84 L 953.51 319.65 L 957.55 319.85 L 961.62 321.41 L 962.08 322.59 L 968.46 322.92 L 969.20 321.55 L 975.38 323.15 L 976.60 325.31 L 981.60 325.92 L 985.69 327.90 L 981.88 329.17 Z M 946.23 316.79 L 941.95 314.07 L 938.00 309.33 L 933.81 302.17 L 930.88 299.39 L 928.67 293.92 L 925.67 291.82 L 923.92 288.97 L 917.94 283.43 L 917.64 281.73 L 924.95 282.51 L 935.47 293.00 L 938.86 293.05 L 941.66 295.34 L 943.59 298.13 L 946.13 299.65 L 944.79 302.37 L 947.90 303.62 L 949.63 307.80 L 952.07 308.10 L 953.70 310.21 L 952.86 314.35 L 952.73 319.51 L 949.03 319.58 L 946.23 316.79 Z M 988.53 304.96 L 988.45 308.28 L 987.16 313.38 L 986.67 312.19 L 982.88 313.69 L 981.56 311.65 L 979.19 311.46 L 977.52 310.40 L 973.56 311.59 L 972.34 309.98 L 967.41 309.78 L 966.90 305.31 L 965.24 304.38 L 963.64 301.53 L 963.18 298.62 L 963.56 295.53 L 965.54 293.31 L 967.99 294.45 L 970.56 293.83 L 971.23 291.01 L 976.65 289.66 L 982.00 283.67 L 987.40 279.52 L 989.08 276.92 L 990.43 276.91 L 992.14 278.59 L 992.30 280.04 L 997.27 281.97 L 997.04 283.28 L 994.80 283.44 L 995.39 285.07 L 992.94 286.21 L 991.04 289.22 L 993.49 292.37 L 992.92 293.91 L 996.66 296.99 L 992.71 297.39 L 991.59 299.66 L 991.74 302.68 L 988.53 304.96 Z M 872.63 274.92 L 872.12 278.39 L 867.83 280.11 L 866.24 277.46 L 865.65 272.66 L 867.16 267.25 L 869.46 269.11 L 872.63 274.92 Z M 995.02 268.95 L 990.58 272.11 L 996.62 265.41 L 998.37 262.10 L 998.97 264.82 L 995.02 268.95 Z M 964.92 239.34 L 962.18 238.31 L 962.09 235.44 L 963.73 233.93 L 969.29 233.07 L 970.03 234.35 L 968.57 235.81 L 967.80 237.74 L 964.92 239.34 Z M 829.51 44.85 L 827.27 45.89 L 805.28 49.13 L 794.92 52.30 L 784.73 58.76 L 785.41 61.53 L 791.79 64.27 L 778.92 64.12 L 778.04 62.64 L 772.01 61.75 L 771.52 59.95 L 774.93 59.24 L 774.81 57.42 L 781.43 54.57 L 778.36 54.17 L 786.34 51.24 L 785.44 49.73 L 803.90 45.83 L 814.99 45.20 L 820.70 43.97 L 827.19 43.53 L 829.51 44.85 Z M 950.25 38.98 L 931.46 40.26 L 937.55 35.89 L 940.29 35.51 L 951.24 37.62 L 950.25 38.98 Z M 908.48 32.85 L 903.94 32.20 L 912.59 29.92 L 919.80 29.17 L 926.28 30.84 L 933.96 34.07 L 933.13 37.06 L 925.86 37.48 L 916.58 36.52 L 911.04 35.24 L 908.48 32.85 Z M 762.98 32.20 L 762.52 32.75 L 758.62 33.30 L 755.01 32.51 L 756.91 31.47 L 749.49 31.37 L 761.06 30.72 L 761.74 31.62 L 766.80 30.27 L 771.74 31.00 L 762.98 32.20 Z M 1179.86 436.42 L 1180.83 437.83 L 1180.83 439.23 L 1175.70 444.57 L 1176.93 446.18 L 1174.36 446.22 L 1171.51 447.48 L 1168.72 453.03 L 1164.44 455.47 L 1161.37 455.40 L 1159.21 454.30 L 1155.59 454.07 L 1155.03 452.84 L 1156.82 450.37 L 1161.01 447.08 L 1168.42 443.44 L 1173.16 438.38 L 1173.66 436.52 L 1176.00 434.98 L 1177.49 437.77 L 1179.86 436.42 Z M 1086.83 445.17 L 1084.77 442.31 L 1084.32 440.11 L 1082.39 437.21 L 1082.48 435.68 L 1087.88 437.13 L 1092.30 436.03 L 1094.30 436.25 L 1094.53 440.21 L 1093.39 441.36 L 1093.05 444.04 L 1091.88 443.13 L 1089.57 445.45 L 1086.83 445.17 Z M 1179.41 431.70 L 1179.51 430.49 L 1181.92 429.33 L 1182.32 424.60 L 1181.06 421.78 L 1176.85 417.46 L 1175.45 415.10 L 1176.69 414.84 L 1178.50 416.69 L 1181.10 417.55 L 1182.04 420.52 L 1184.46 424.03 L 1184.53 421.75 L 1186.03 422.66 L 1186.53 425.18 L 1189.21 426.27 L 1191.46 426.54 L 1193.37 425.27 L 1195.06 425.65 L 1193.23 430.55 L 1190.69 430.49 L 1189.80 431.50 L 1190.11 432.93 L 1186.71 437.63 L 1184.13 438.96 L 1182.17 437.61 L 1184.09 434.86 L 1183.00 433.03 L 1179.41 431.70 Z M 1001.93 413.10 L 999.65 413.25 L 997.66 415.03 L 996.69 414.88 L 993.42 416.88 L 988.75 416.75 L 983.42 413.99 L 983.50 412.08 L 985.72 410.87 L 986.01 407.35 L 983.32 400.10 L 983.47 398.20 L 982.05 395.05 L 980.58 393.73 L 980.16 391.12 L 977.80 387.06 L 979.26 388.50 L 978.14 385.40 L 980.78 387.66 L 980.72 385.95 L 977.98 381.28 L 979.48 376.87 L 979.12 374.92 L 980.50 372.52 L 980.75 375.06 L 982.16 372.77 L 989.04 369.01 L 991.47 369.16 L 997.51 366.51 L 1002.85 365.61 L 1007.47 360.66 L 1007.71 357.52 L 1010.04 354.68 L 1011.45 357.56 L 1012.86 356.90 L 1011.68 355.32 L 1012.72 353.70 L 1014.19 354.43 L 1014.60 351.89 L 1017.22 348.93 L 1018.90 348.37 L 1018.95 347.44 L 1020.42 347.82 L 1020.48 346.99 L 1023.55 346.06 L 1027.87 349.56 L 1032.07 349.90 L 1031.37 348.07 L 1032.96 345.40 L 1034.46 344.52 L 1033.95 343.69 L 1035.39 341.79 L 1037.41 340.61 L 1039.12 341.01 L 1041.92 340.38 L 1041.86 338.68 L 1039.42 337.58 L 1041.19 337.10 L 1045.17 339.29 L 1047.98 340.14 L 1048.93 339.80 L 1050.99 340.83 L 1054.97 339.52 L 1056.51 341.17 L 1054.35 344.30 L 1053.21 344.42 L 1053.59 345.75 L 1051.43 349.05 L 1051.67 349.99 L 1061.01 356.03 L 1063.70 356.88 L 1064.20 357.91 L 1067.38 359.04 L 1069.58 357.90 L 1070.91 354.63 L 1072.34 350.15 L 1071.73 345.66 L 1072.81 342.47 L 1072.29 341.36 L 1073.81 336.81 L 1075.05 335.56 L 1075.99 337.19 L 1076.22 339.28 L 1077.05 339.69 L 1077.20 341.09 L 1078.41 342.78 L 1078.54 345.88 L 1079.74 348.49 L 1081.88 347.24 L 1084.58 349.95 L 1084.24 351.43 L 1084.95 354.29 L 1085.46 355.95 L 1086.30 356.36 L 1087.20 359.21 L 1086.88 360.93 L 1087.96 363.19 L 1096.16 367.97 L 1095.72 368.78 L 1097.63 370.87 L 1098.93 374.48 L 1100.26 373.74 L 1101.61 375.19 L 1102.42 374.67 L 1103.00 378.21 L 1109.52 384.23 L 1110.45 386.90 L 1110.31 390.87 L 1111.90 393.70 L 1109.64 405.47 L 1108.17 408.50 L 1105.70 410.14 L 1101.09 418.91 L 1099.99 424.75 L 1098.08 425.91 L 1094.35 426.03 L 1091.27 427.40 L 1087.73 430.12 L 1082.92 428.06 L 1083.44 426.32 L 1081.62 426.95 L 1078.70 429.36 L 1068.80 426.73 L 1066.64 424.68 L 1065.25 420.46 L 1063.61 419.11 L 1060.40 418.71 L 1061.50 417.09 L 1060.69 414.62 L 1059.06 416.92 L 1056.10 417.54 L 1057.84 415.69 L 1058.35 413.77 L 1059.63 412.13 L 1059.37 409.67 L 1056.66 412.51 L 1054.57 413.65 L 1053.30 416.30 L 1050.69 414.93 L 1050.80 413.16 L 1046.95 409.49 L 1047.58 408.72 L 1037.75 404.99 L 1031.79 405.30 L 1023.68 407.61 L 1020.50 407.39 L 1014.07 409.86 L 1012.20 412.97 L 1001.93 413.10 Z M 1146.77 367.02 L 1148.20 367.07 L 1150.07 368.20 L 1157.07 373.87 L 1155.80 374.67 L 1151.58 372.27 L 1147.23 368.15 L 1146.77 367.02 Z M 1193.75 358.35 L 1194.58 357.80 L 1195.73 358.76 L 1195.18 360.50 L 1193.11 360.96 L 1191.27 360.55 L 1190.95 359.08 L 1192.24 357.94 L 1193.75 358.35 Z M 1200.00 355.18 L 1195.75 356.71 L 1195.32 355.46 L 1200.00 353.56 L 1200.00 355.18 Z M 1157.39 352.97 L 1159.48 354.89 L 1158.38 355.33 L 1157.27 353.87 L 1157.39 352.97 Z M 1157.03 349.78 L 1157.57 352.47 L 1155.98 352.23 L 1155.43 348.75 L 1157.03 349.78 Z M 1139.72 334.82 L 1141.33 336.09 L 1139.00 336.07 L 1137.73 334.02 L 1139.72 334.82 Z M 1016.95 328.86 L 1023.19 327.58 L 1024.45 327.99 L 1016.96 331.31 L 1014.79 333.80 L 1011.93 334.53 L 1011.83 333.00 L 1013.27 330.97 L 1016.56 329.64 L 1016.95 328.86 Z M 1134.88 332.98 L 1132.13 332.13 L 1132.34 330.81 L 1134.54 331.33 L 1136.17 332.91 L 1134.88 332.98 Z M 1135.96 329.73 L 1135.27 327.73 L 1136.40 327.73 L 1138.93 332.00 L 1138.43 332.61 L 1135.96 329.73 Z M 1004.47 328.46 L 1006.69 328.20 L 1009.68 326.98 L 1009.19 328.83 L 1004.18 329.78 L 999.75 329.37 L 999.74 328.15 L 1002.38 327.46 L 1004.47 328.46 Z M 1132.13 326.73 L 1133.06 328.46 L 1127.37 324.74 L 1127.87 324.40 L 1132.13 326.73 Z M 1124.46 324.68 L 1121.64 322.55 L 1121.81 322.00 L 1125.13 324.49 L 1124.46 324.68 Z M 1089.90 322.41 L 1090.64 324.63 L 1093.62 326.81 L 1095.78 330.35 L 1097.69 330.24 L 1097.56 331.71 L 1100.13 332.28 L 1099.13 332.91 L 1102.67 334.31 L 1102.30 335.28 L 1100.09 335.51 L 1099.27 334.64 L 1093.04 333.77 L 1088.56 329.81 L 1086.83 326.89 L 1082.48 325.43 L 1077.62 327.48 L 1078.05 329.94 L 1075.43 331.09 L 1070.11 330.39 L 1067.14 327.66 L 1063.76 326.99 L 1062.94 327.94 L 1058.71 328.04 L 1060.13 325.33 L 1062.23 324.40 L 1061.36 320.78 L 1059.76 317.98 L 1053.30 315.16 L 1050.55 314.88 L 1045.54 311.80 L 1044.56 313.42 L 1043.28 313.71 L 1042.51 311.04 L 1039.97 309.40 L 1043.56 308.20 L 1045.93 308.27 L 1045.65 307.38 L 1040.77 307.38 L 1039.45 305.39 L 1036.48 304.78 L 1035.07 303.13 L 1039.56 302.32 L 1041.27 301.23 L 1046.62 302.60 L 1048.08 309.23 L 1051.53 311.23 L 1054.31 307.69 L 1058.14 305.68 L 1061.10 305.68 L 1066.42 308.03 L 1070.00 308.67 L 1081.95 312.87 L 1086.10 316.25 L 1086.61 318.22 L 1092.16 320.28 L 1092.97 322.05 L 1089.90 322.41 Z M 1047.63 319.28 L 1048.33 318.15 L 1049.09 319.13 L 1049.08 320.71 L 1047.37 322.98 L 1047.04 320.47 L 1047.63 319.28 Z M 1115.05 317.13 L 1115.51 316.81 L 1115.87 317.80 L 1120.07 321.80 L 1119.60 322.73 L 1118.67 323.07 L 1117.22 321.79 L 1115.76 319.67 L 1115.05 317.13 Z M 1099.49 318.35 L 1100.47 316.67 L 1100.79 318.44 L 1102.69 318.19 L 1105.49 315.86 L 1105.13 313.89 L 1107.12 313.83 L 1107.80 314.38 L 1107.73 316.23 L 1106.61 318.26 L 1104.86 318.53 L 1104.34 319.47 L 1100.80 321.06 L 1099.03 321.06 L 1094.40 319.16 L 1094.67 318.13 L 1099.49 318.35 Z M 1102.21 309.14 L 1103.13 308.33 L 1107.47 310.80 L 1110.07 313.27 L 1110.47 315.00 L 1109.42 315.89 L 1108.02 312.63 L 1104.61 310.12 L 1102.21 309.14 Z M 1023.34 310.43 L 1024.16 311.53 L 1022.92 312.64 L 1020.61 312.02 L 1019.96 310.59 L 1023.34 310.43 Z M 1031.24 309.34 L 1034.90 310.31 L 1036.12 312.86 L 1033.30 311.49 L 1026.33 311.31 L 1027.12 309.48 L 1031.24 309.34 Z M 1000.14 301.73 L 1003.12 304.70 L 1004.92 303.19 L 1011.14 302.05 L 1010.86 303.59 L 1009.41 303.10 L 1007.96 305.06 L 1005.03 306.35 L 1008.18 310.62 L 1007.57 311.77 L 1010.57 315.61 L 1010.54 317.80 L 1008.76 318.78 L 1007.45 317.61 L 1009.07 314.88 L 1005.79 316.17 L 1004.96 315.25 L 1005.40 313.96 L 1002.99 312.01 L 1003.24 308.76 L 1001.02 309.77 L 1001.44 318.43 L 999.32 318.91 L 997.89 317.93 L 998.85 314.86 L 998.33 311.65 L 996.93 311.62 L 995.89 309.34 L 997.27 307.16 L 1000.12 298.11 L 1002.95 295.64 L 1005.56 296.62 L 1009.76 297.08 L 1013.59 296.94 L 1016.89 294.52 L 1017.47 295.27 L 1014.79 298.57 L 1012.29 299.21 L 1009.08 298.56 L 1000.61 299.21 L 1000.14 301.73 Z M 1025.65 300.89 L 1024.66 296.63 L 1025.34 293.96 L 1026.44 292.75 L 1026.68 294.57 L 1028.65 294.86 L 1028.79 299.14 L 1027.07 298.81 L 1026.56 300.84 L 1027.93 302.60 L 1027.00 303.00 L 1025.65 300.89 Z M 1014.07 279.46 L 1013.13 277.05 L 1014.15 275.46 L 1012.03 273.89 L 1010.99 275.27 L 1009.42 275.14 L 1006.95 277.00 L 1006.40 276.03 L 1007.71 273.22 L 1011.63 271.02 L 1012.80 272.53 L 1015.34 271.62 L 1015.88 270.13 L 1018.24 270.04 L 1018.04 267.47 L 1020.74 269.05 L 1021.79 276.04 L 1020.66 279.09 L 1019.44 275.69 L 1017.88 277.38 L 1018.94 279.83 L 1017.99 281.40 L 1014.07 279.46 Z M 1011.03 268.94 L 1009.99 269.93 L 1007.93 267.62 L 1009.46 265.80 L 1009.82 263.73 L 1011.66 263.53 L 1011.13 265.78 L 1013.59 262.56 L 1013.27 265.74 L 1011.03 268.94 Z M 1006.79 261.95 L 1006.28 260.36 L 1008.28 261.39 L 1010.40 261.39 L 1010.34 262.78 L 1006.68 265.20 L 1006.79 261.95 Z M 1014.34 261.68 L 1016.30 261.95 L 1016.26 260.69 L 1014.22 258.14 L 1017.42 258.21 L 1018.34 259.46 L 1019.28 263.18 L 1016.71 262.30 L 1017.59 265.47 L 1016.01 266.22 L 1015.87 263.87 L 1014.86 263.70 L 1014.34 261.68 Z M 1005.09 256.43 L 1004.21 259.31 L 1001.08 255.11 L 1003.93 255.23 L 1005.09 256.43 Z M 1009.00 252.21 L 1013.17 254.06 L 1012.85 255.87 L 1013.94 256.67 L 1013.59 258.21 L 1010.99 256.57 L 1009.76 254.82 L 1008.90 256.05 L 1006.78 254.05 L 1003.75 254.54 L 1002.10 253.81 L 1002.26 252.43 L 1003.31 251.58 L 1002.31 250.81 L 1001.88 252.01 L 1000.23 250.10 L 999.61 245.45 L 1000.95 246.55 L 1001.30 241.34 L 1002.39 238.32 L 1004.40 238.32 L 1006.46 239.27 L 1007.49 238.40 L 1007.25 240.63 L 1008.39 243.02 L 1007.51 245.79 L 1005.54 246.90 L 1005.02 249.58 L 1005.76 252.24 L 1009.00 252.21 Z M 1005.93 218.69 L 1003.92 224.03 L 1002.49 226.76 L 1000.73 223.95 L 1000.35 221.48 L 1002.32 218.21 L 1004.98 215.68 L 1006.50 216.67 L 1005.93 218.69 Z M 1043.38 190.98 L 1041.21 190.04 L 1041.24 188.45 L 1043.08 186.47 L 1044.98 186.85 L 1046.35 185.45 L 1048.79 186.17 L 1049.22 187.31 L 1047.34 189.33 L 1045.98 188.26 L 1044.27 189.03 L 1043.38 190.98 Z M 1050.40 187.17 L 1050.26 184.68 L 1044.47 185.41 L 1040.52 186.98 L 1036.62 187.05 L 1040.00 189.50 L 1037.78 195.17 L 1035.62 196.57 L 1034.01 195.27 L 1034.83 192.27 L 1032.72 191.30 L 1031.36 189.01 L 1034.51 187.99 L 1036.26 185.89 L 1039.61 184.17 L 1042.06 181.89 L 1048.69 180.89 L 1052.26 181.58 L 1055.75 175.65 L 1057.97 177.24 L 1064.75 172.61 L 1066.85 168.54 L 1066.28 164.79 L 1067.69 162.68 L 1071.23 162.07 L 1073.05 166.69 L 1072.95 169.40 L 1069.86 172.75 L 1069.92 176.19 L 1068.67 178.85 L 1069.25 180.52 L 1067.51 182.87 L 1063.25 184.44 L 1057.39 184.65 L 1052.64 188.45 L 1050.40 187.17 Z M 1066.06 158.12 L 1067.71 155.56 L 1071.27 155.37 L 1073.23 148.16 L 1077.14 151.63 L 1079.70 152.75 L 1082.04 153.46 L 1084.40 152.05 L 1085.14 155.79 L 1080.20 156.71 L 1077.28 160.02 L 1072.04 157.74 L 1070.22 161.38 L 1066.52 161.43 L 1066.06 158.12 Z M 1078.35 146.21 L 1075.83 144.20 L 1073.64 146.78 L 1073.02 143.98 L 1073.01 137.14 L 1073.79 134.62 L 1073.93 130.16 L 1071.98 126.88 L 1072.28 122.33 L 1075.36 120.79 L 1074.03 119.25 L 1075.52 118.78 L 1077.54 124.20 L 1077.45 127.48 L 1082.18 136.75 L 1077.25 135.64 L 1075.20 140.46 L 1078.44 143.88 L 1078.35 146.21 Z M 1195.75 63.00 L 1200.00 61.61 L 1200.00 63.89 L 1196.34 64.06 L 1195.75 63.00 Z M 1069.37 54.12 L 1073.54 53.81 L 1078.28 55.08 L 1078.68 55.96 L 1066.21 55.43 L 1069.37 54.12 Z M 1093.26 50.74 L 1087.06 49.42 L 1087.86 48.34 L 1102.44 49.72 L 1098.59 51.04 L 1093.26 50.74 Z M 1071.57 46.36 L 1083.62 48.12 L 1081.00 50.60 L 1068.71 50.51 L 1063.18 51.30 L 1056.58 49.13 L 1058.37 46.84 L 1062.77 46.21 L 1071.57 46.36 Z" fill-rule="evenodd"/>
  </g>
</svg>
