<svg width="1180" height="502" viewBox="0 0 1180 502" fill="none" xmlns="http://www.w3.org/2000/svg">
<path d="M0.570007 405.09H74.9C88.61 405.09 99.67 414.31 99.67 425.73V438.12C99.6224 440.72 99.0413 443.284 97.9628 445.65C96.8843 448.017 95.3313 450.138 93.4 451.88C95.3103 453.641 96.849 455.767 97.9258 458.132C99.0025 460.496 99.5956 463.053 99.67 465.65V480.79C99.67 492.21 88.61 501.43 74.9 501.43H0.570007V405.09ZM74.9 445C79.52 445 83.15 442 83.15 438.12V425.73C83.15 421.88 79.52 418.85 74.9 418.85H17.09V445H74.9ZM17.09 458.76V487.67H74.9C79.52 487.67 83.15 484.67 83.15 480.79V465.65C83.15 461.79 79.52 458.76 74.9 458.76H17.09Z" fill="#FECA14"/>
<path d="M213.63 405.09C227.34 405.09 238.41 414.31 238.41 425.73V501.43H221.89V460.14H155.83V501.43H139.31V425.73C139.31 414.31 150.37 405.09 164.08 405.09H213.63ZM164.08 418.85C159.46 418.85 155.83 421.85 155.83 425.73V446.38H221.89V425.73C221.89 421.88 218.26 418.85 213.63 418.85H164.08Z" fill="#FECA14"/>
<path d="M265.99 405.09H365.09V418.85H323.76V501.43H307.28V418.85H265.99V405.09Z" fill="#FECA14"/>
<path d="M403.07 405.09H502.17V418.85H460.88V501.43H444.36V418.85H403.07V405.09Z" fill="#FECA14"/>
<path d="M538.51 405.09H555.02V487.67H637.6V501.43H538.51V405.09Z" fill="#FECA14"/>
<path d="M687.15 446.38H766.43L761.43 460.14H687.1V487.67H766.38V501.43H670.59V405.09H766.38V418.85H687.1L687.15 446.38Z" fill="#FECA14"/>
<path d="M804.42 405.09H820.93V487.67H903.51V501.43H804.42V405.09Z" fill="#FECA14"/>
<path d="M1014.17 405.09C1027.88 405.09 1038.95 414.31 1038.95 425.73V501.43H1022.43V460.14H956.37V501.43H939.85V425.73C939.85 414.31 950.92 405.09 964.62 405.09H1014.17ZM964.62 418.85C960 418.85 956.37 421.85 956.37 425.73V446.38H1022.43V425.73C1022.43 421.88 1018.8 418.85 1014.17 418.85H964.62Z" fill="#FECA14"/>
<path d="M1080.24 405.09H1154.56C1168.27 405.09 1179.34 414.31 1179.34 425.73V438.12C1179.29 440.722 1178.71 443.286 1177.63 445.654C1176.55 448.021 1175 450.141 1173.06 451.88C1174.97 453.639 1176.51 455.764 1177.59 458.129C1178.67 460.494 1179.27 463.052 1179.34 465.65V480.79C1179.34 492.21 1168.27 501.43 1154.56 501.43H1080.24V405.09ZM1154.56 445C1159.19 445 1162.82 442 1162.82 438.12V425.73C1162.82 421.88 1159.19 418.85 1154.56 418.85H1096.76V445H1154.56ZM1096.76 458.76V487.67H1154.56C1159.19 487.67 1162.82 484.67 1162.82 480.79V465.65C1162.82 461.79 1159.19 458.76 1154.56 458.76H1096.76Z" fill="#FECA14"/>
<path d="M601.52 201.79C600.38 201.79 599.258 201.512 598.25 200.98L420.65 107.11C419.524 106.515 418.581 105.625 417.924 104.534C417.266 103.443 416.919 102.194 416.919 100.92C416.919 99.6464 417.266 98.3969 417.924 97.3062C418.581 96.2154 419.524 95.3247 420.65 94.73L598.25 0.850037C599.258 0.317612 600.38 0.0393066 601.52 0.0393066C602.66 0.0393066 603.782 0.317612 604.79 0.850037L782.38 94.73C783.506 95.3247 784.449 96.2154 785.106 97.3062C785.764 98.3969 786.111 99.6464 786.111 100.92C786.111 102.194 785.764 103.443 785.106 104.534C784.449 105.625 783.506 106.515 782.38 107.11L604.76 201C603.759 201.521 602.648 201.792 601.52 201.79ZM438.9 100.92L601.52 186.92L764.13 100.92L601.52 15L438.9 100.92Z" fill="#FECA14"/>
<path d="M601.52 263.66C600.38 263.66 599.258 263.382 598.25 262.85L420.65 169C419.524 168.405 418.581 167.515 417.924 166.424C417.266 165.333 416.919 164.084 416.919 162.81C416.919 161.536 417.266 160.287 417.924 159.196C418.581 158.105 419.524 157.215 420.65 156.62L598.25 62.7499C599.258 62.2175 600.38 61.9392 601.52 61.9392C602.66 61.9392 603.782 62.2175 604.79 62.7499L782.38 156.62C783.506 157.215 784.449 158.105 785.106 159.196C785.764 160.287 786.111 161.536 786.111 162.81C786.111 164.084 785.764 165.333 785.106 166.424C784.449 167.515 783.506 168.405 782.38 169L604.76 262.85C603.761 263.377 602.65 263.655 601.52 263.66ZM438.9 162.78L601.52 248.78L764.13 162.78L601.52 76.7799L438.9 162.78Z" fill="#FECA14"/>
<path d="M601.52 325.52C600.38 325.52 599.258 325.242 598.25 324.71L420.65 230.83C419.526 230.234 418.586 229.344 417.93 228.254C417.275 227.165 416.928 225.917 416.928 224.645C416.928 223.373 417.275 222.125 417.93 221.036C418.586 219.946 419.526 219.056 420.65 218.46L598.25 124.58C599.258 124.048 600.38 123.769 601.52 123.769C602.66 123.769 603.782 124.048 604.79 124.58L782.38 218.46C783.504 219.056 784.444 219.946 785.1 221.036C785.755 222.125 786.102 223.373 786.102 224.645C786.102 225.917 785.755 227.165 785.1 228.254C784.444 229.344 783.504 230.234 782.38 230.83L604.76 324.71C603.761 325.237 602.65 325.515 601.52 325.52ZM438.9 224.64L601.52 310.64L764.13 224.64L601.52 138.69L438.9 224.64Z" fill="#FECA14"/>
</svg>
